<svg id="Layer_1" data-name="Layer 1" xmlns="http://www.w3.org/2000/svg" xmlns:xlink="http://www.w3.org/1999/xlink" viewBox="0 0 200 63"><defs><style>.cls-1{fill:#fff;}.cls-2{mask:url(#mask);}.cls-3{fill:url(#linear-gradient);}.cls-4{fill-opacity:0.24;}.cls-5{fill-opacity:0.32;}.cls-6{fill:url(#linear-gradient-2);}.cls-7,.cls-8{opacity:0.5;isolation:isolate;}.cls-7{fill:url(#linear-gradient-3);}.cls-8{fill:#b0adff;}</style><mask id="mask" x="0" y="0.03" width="44.06" height="62.94" maskUnits="userSpaceOnUse"><g id="mask0"><path class="cls-1" d="M44.06,20.2a6.31,6.31,0,0,0-4.18-5.93L3.36,1.23A2.52,2.52,0,0,0,0,3.6V23.43A2.5,2.5,0,0,0,1.67,25.8L18,31.65a2.52,2.52,0,0,0,3.37-2.37V17.89a1.26,1.26,0,0,1,1.7-1.18l4.29,1.62a6.28,6.28,0,0,1,4.08,5.89v5L13,35.93a2.52,2.52,0,0,0-1.65,2.37V58.11a2.51,2.51,0,0,0,3.38,2.36l25.21-9.21a6.28,6.28,0,0,0,4.14-5.91Z"/></g></mask><linearGradient id="linear-gradient" x1="14.49" y1="62.24" x2="26.21" y2="31.58" gradientTransform="matrix(1, 0, 0, -1, 0, 63)" gradientUnits="userSpaceOnUse"><stop offset="0" stop-color="#0b53ce"/><stop offset="1" stop-color="#7252aa"/></linearGradient><linearGradient id="linear-gradient-2" x1="27.69" y1="3.5" x2="27.69" y2="40.05" gradientTransform="matrix(1, 0, 0, -1, 0, 63)" gradientUnits="userSpaceOnUse"><stop offset="0" stop-color="#2266e3"/><stop offset="1" stop-color="#ae7fe2"/></linearGradient><linearGradient id="linear-gradient-3" x1="44.06" y1="22.06" x2="31.52" y2="22.06" gradientTransform="matrix(1, 0, 0, -1, 0, 63)" gradientUnits="userSpaceOnUse"><stop offset="0" stop-color="#94b9ff"/><stop offset="0.29" stop-color="#94b9ff" stop-opacity="0.52"/><stop offset="1" stop-color="#538fff" stop-opacity="0"/></linearGradient></defs><g class="cls-2"><path class="cls-3" d="M0,0,44.06,15.77v21.6a2.52,2.52,0,0,1-3.37,2.37l-9.22-3.29V24.21a6.3,6.3,0,0,0-4.08-5.89L23.1,16.71a1.26,1.26,0,0,0-1.7,1.18v15L0,25.21Z"/><path class="cls-4" d="M44.06,20.42h0a6.3,6.3,0,0,1-4.14,5.92L11.33,36.79V62L44.06,50Z"/><path class="cls-5" d="M44.06,21.43h0a6.31,6.31,0,0,1-4.14,5.92L11.33,37.79V63L44.06,51Z"/><path class="cls-6" d="M44.06,20.17h0a6.31,6.31,0,0,1-4.14,5.92L11.33,36.54V61.71l32.73-12Z"/><path class="cls-7" d="M44.06,20.17h0a6.31,6.31,0,0,1-4.14,5.92L11.33,36.54V61.71l32.73-12Z"/><path class="cls-8" d="M31.47,29.18,21.39,32.87V47.63a1.26,1.26,0,0,0,1.71,1.18l4.29-1.62a6.27,6.27,0,0,0,4.08-5.89Z"/></g><path d="M55.92,37.08V20.58h4.77q9.12,0,9.12,8a7.92,7.92,0,0,1-2.53,6.14,9.69,9.69,0,0,1-6.79,2.32ZM58.65,22.9V34.76h2.19a6.1,6.1,0,0,0,4.49-1.58,6,6,0,0,0,1.6-4.49c0-3.86-2-5.79-6-5.79Z"/><path d="M82.61,25.3,77.3,39q-1.67,3.66-4.65,3.66a5.63,5.63,0,0,1-1.41-.15V40.25a3.75,3.75,0,0,0,1.15.21A2.38,2.38,0,0,0,74.63,39l.79-1.94L70.74,25.3h3l2.81,8.56c0,.1.1.39.21.85h.06c0-.18.1-.46.2-.83l3-8.58Z"/><path d="M94.75,37.08H92.09V30.44q0-3.3-2.34-3.3a2.54,2.54,0,0,0-2,.91,3.4,3.4,0,0,0-.8,2.31v6.72H84.26V25.3h2.68v1.95h0A4.2,4.2,0,0,1,90.81,25a3.55,3.55,0,0,1,2.93,1.25,5.57,5.57,0,0,1,1,3.61Z"/><path d="M106.93,37.08h-2.58V35.24h0a3.9,3.9,0,0,1-3.58,2.11A3.76,3.76,0,0,1,98,36.41a3.32,3.32,0,0,1-1-2.5c0-2.22,1.28-3.52,3.84-3.88l3.5-.5q0-2.52-2.4-2.52a5.66,5.66,0,0,0-3.79,1.45V26.13a8.25,8.25,0,0,1,4.3-1.11c3,0,4.46,1.47,4.46,4.4Zm-2.57-5.79-2.48.35a4,4,0,0,0-1.73.55,1.66,1.66,0,0,0-.58,1.44,1.57,1.57,0,0,0,.54,1.22,2,2,0,0,0,1.43.48,2.65,2.65,0,0,0,2-.86,3.05,3.05,0,0,0,.8-2.16Z"/><path d="M127.68,37.08H125V30.66a5.16,5.16,0,0,0-.53-2.68,1.93,1.93,0,0,0-1.76-.83A2.13,2.13,0,0,0,121,28.2a4.22,4.22,0,0,0-.73,2.5v6.38h-2.68V30.44c0-2.19-.78-3.29-2.33-3.29a2.08,2.08,0,0,0-1.77,1,4.3,4.3,0,0,0-.7,2.56v6.38h-2.67V25.3h2.67v1.86h.05A4.07,4.07,0,0,1,116.5,25a3.56,3.56,0,0,1,2.14.67,3.33,3.33,0,0,1,1.24,1.77A4.21,4.21,0,0,1,123.8,25q3.89,0,3.88,4.8Z"/><path d="M132.17,22.82a1.61,1.61,0,0,1-1.12-.42,1.42,1.42,0,0,1-.47-1.08,1.47,1.47,0,0,1,.47-1.1,1.57,1.57,0,0,1,1.12-.43,1.64,1.64,0,0,1,1.15.43,1.47,1.47,0,0,1,.47,1.1,1.41,1.41,0,0,1-.47,1.06A1.61,1.61,0,0,1,132.17,22.82Zm1.32,14.26h-2.67V25.3h2.67Z"/><path d="M145.29,36.54a6.62,6.62,0,0,1-3.35.81,5.63,5.63,0,0,1-4.23-1.64,5.82,5.82,0,0,1-1.61-4.25,6.38,6.38,0,0,1,1.73-4.67A6.18,6.18,0,0,1,142.46,25a6.85,6.85,0,0,1,2.84.56v2.49a4.31,4.31,0,0,0-2.62-.92,3.64,3.64,0,0,0-2.77,1.14,4.22,4.22,0,0,0-1.08,3,4,4,0,0,0,1,2.89,3.65,3.65,0,0,0,2.74,1.06,4.24,4.24,0,0,0,2.71-1Z"/><path d="M147.08,36.71V34.24a5.38,5.38,0,0,0,3.3,1.13c1.61,0,2.42-.47,2.42-1.42a1.13,1.13,0,0,0-.21-.69,2.24,2.24,0,0,0-.55-.5,5.85,5.85,0,0,0-.83-.39L150.14,32a9.87,9.87,0,0,1-1.3-.61,3.91,3.91,0,0,1-1-.73,2.65,2.65,0,0,1-.58-.93,3.35,3.35,0,0,1-.2-1.2,2.76,2.76,0,0,1,.41-1.5,3.54,3.54,0,0,1,1.08-1.1,5,5,0,0,1,1.54-.66A7,7,0,0,1,151.9,25a8.05,8.05,0,0,1,2.92.5v2.33A4.87,4.87,0,0,0,152,27a3.62,3.62,0,0,0-.91.1,2.38,2.38,0,0,0-.7.29,1.46,1.46,0,0,0-.45.44,1.17,1.17,0,0,0-.16.57,1.3,1.3,0,0,0,.16.65,1.52,1.52,0,0,0,.48.46,3.59,3.59,0,0,0,.76.37l1,.36a14.57,14.57,0,0,1,1.36.64,4.22,4.22,0,0,1,1,.73,3,3,0,0,1,.66.94,3.27,3.27,0,0,1,.23,1.27,2.9,2.9,0,0,1-.42,1.57,3.4,3.4,0,0,1-1.1,1.1,5.12,5.12,0,0,1-1.6.65,8.32,8.32,0,0,1-1.9.21A8,8,0,0,1,147.08,36.71Z"/><path d="M163.9,36.47V34a5.69,5.69,0,0,0,3.63,1.28,4.23,4.23,0,0,0,2.63-.75,2.42,2.42,0,0,0,1-2q0-2.8-4.29-2.8h-1.28V27.52h1.22q3.81,0,3.81-2.65c0-1.62-1-2.44-3-2.44a4.85,4.85,0,0,0-3.11,1.19V21.25a8,8,0,0,1,4-.95A5.32,5.32,0,0,1,172,21.41a3.53,3.53,0,0,1,1.32,2.83A4,4,0,0,1,170,28.43v0a4.35,4.35,0,0,1,2.81,1.25,3.73,3.73,0,0,1,1,2.69A4.41,4.41,0,0,1,172.2,36a6.72,6.72,0,0,1-4.39,1.36A7.48,7.48,0,0,1,163.9,36.47Z"/><path d="M187.69,31.77a6.11,6.11,0,0,1-.4,2.27,5.44,5.44,0,0,1-1.14,1.77A5.14,5.14,0,0,1,184.43,37a5.63,5.63,0,0,1-2.15.4,5.43,5.43,0,0,1-2.29-.48,4.84,4.84,0,0,1-1.79-1.44A6.91,6.91,0,0,1,177,33.07a11.73,11.73,0,0,1-.41-3.3,14,14,0,0,1,.54-4.06,9.2,9.2,0,0,1,1.5-3,6.48,6.48,0,0,1,2.25-1.81,6.23,6.23,0,0,1,2.78-.63,11,11,0,0,1,1.7.13,4.61,4.61,0,0,1,1.22.35v2.4a8.17,8.17,0,0,0-1.25-.51,5.51,5.51,0,0,0-1.53-.2,4,4,0,0,0-1.78.39A3.87,3.87,0,0,0,180.64,24a5.76,5.76,0,0,0-.94,1.87,9.32,9.32,0,0,0-.35,2.56h.07a3.71,3.71,0,0,1,1.43-1.29,4.49,4.49,0,0,1,2.13-.47,5.06,5.06,0,0,1,2,.35,4,4,0,0,1,1.48,1,4.52,4.52,0,0,1,1,1.61A6.44,6.44,0,0,1,187.69,31.77ZM185,32a4.82,4.82,0,0,0-.16-1.3,2.86,2.86,0,0,0-.51-1,2.28,2.28,0,0,0-.85-.65,2.79,2.79,0,0,0-1.2-.23,2.92,2.92,0,0,0-1.22.24,2.76,2.76,0,0,0-.88.65,2.73,2.73,0,0,0-.53.92,3.23,3.23,0,0,0-.18,1.06,4.24,4.24,0,0,0,.17,1.2,3.73,3.73,0,0,0,.51,1.13,2.91,2.91,0,0,0,.88.83,2.35,2.35,0,0,0,1.27.33,2.67,2.67,0,0,0,1.16-.24,2.56,2.56,0,0,0,.85-.67,3.2,3.2,0,0,0,.51-1A4.26,4.26,0,0,0,185,32Z"/><path d="M190.26,36.7V34.13a5.8,5.8,0,0,0,3.29,1.09,4.06,4.06,0,0,0,2.7-.85,2.83,2.83,0,0,0,1-2.29,2.56,2.56,0,0,0-1-2.18,4.9,4.9,0,0,0-3-.78c-.45,0-1.35,0-2.71.13l.59-8.67h8.12v2.28h-5.9L193.07,27c.53,0,1,0,1.44,0a5.7,5.7,0,0,1,4.06,1.35A4.82,4.82,0,0,1,200,32a5.06,5.06,0,0,1-1.64,3.93,6.49,6.49,0,0,1-4.5,1.48A7.48,7.48,0,0,1,190.26,36.7Z"/></svg>