<svg xmlns="http://www.w3.org/2000/svg" viewBox="0 0 148.89 22"><defs><style>.cls-1,.cls-2{fill:#293e40;}.cls-1,.cls-3{fill-rule:evenodd;}.cls-3{fill:#81b5a1;}</style></defs><title>Asset 1</title><g id="Layer_2" data-name="Layer 2"><g id="Layer_1-2" data-name="Layer 1"><path class="cls-1" d="M36.27,6.78a6.47,6.47,0,0,0-4.15,1.49V6.93H28.33V21.69h3.94V12.26a4.69,4.69,0,0,1,3.58-1.83,3.92,3.92,0,0,1,1.58.24V6.88a6.41,6.41,0,0,0-1.16-.1"/><path class="cls-1" d="M1.91,17.19a6.2,6.2,0,0,0,4,1.46c1.06,0,1.88-.52,1.88-1.25C7.82,15.18.7,16,.7,11.22c0-2.83,2.73-4.59,5.64-4.59a9.1,9.1,0,0,1,5,1.49L9.46,11a5,5,0,0,0-2.82-1c-1.09,0-2,.43-2,1.19,0,1.92,7.12,1.16,7.12,6.27C11.76,20.26,9,22,5.91,22A10.2,10.2,0,0,1,0,20Z"/><path class="cls-1" d="M26.65,14.17c0-4.11-2.88-7.54-6.95-7.54-4.36,0-7.15,3.59-7.15,7.69A7.36,7.36,0,0,0,20.25,22a8,8,0,0,0,6-2.64L24,17.09a5.21,5.21,0,0,1-3.7,1.71,3.86,3.86,0,0,1-4-3.5H26.55A6.6,6.6,0,0,0,26.65,14.17Zm-10.1-1.76A3.2,3.2,0,0,1,19.7,9.82a2.93,2.93,0,0,1,2.91,2.59Z"/><polygon class="cls-1" points="46.82 15.94 50.85 6.93 54.95 6.93 48.18 21.69 45.46 21.69 38.7 6.93 42.79 6.93 46.82 15.94"/><path class="cls-1" d="M58.25,0a2.53,2.53,0,1,1-2.57,2.53A2.53,2.53,0,0,1,58.25,0"/><rect class="cls-2" x="56.28" y="6.93" width="3.94" height="14.76"/><path class="cls-1" d="M76.52,18.68A7.79,7.79,0,0,1,69.85,22a7.68,7.68,0,1,1,0-15.36,7.83,7.83,0,0,1,6.19,3L73.28,12a4.27,4.27,0,0,0-3.4-1.76,4,4,0,0,0-4,4.05,3.89,3.89,0,0,0,4.06,4,4.3,4.3,0,0,0,3.52-1.95Z"/><path class="cls-1" d="M90.83,19.35a8,8,0,0,1-6,2.64,7.37,7.37,0,0,1-7.7-7.67c0-4.1,2.79-7.69,7.16-7.69,4.06,0,6.94,3.43,6.94,7.54a6.64,6.64,0,0,1-.09,1.13H80.92a3.86,3.86,0,0,0,4,3.5,5.21,5.21,0,0,0,3.7-1.71Zm-3.66-6.94a3,3,0,0,0-2.91-2.59,3.2,3.2,0,0,0-3.16,2.59Z"/><path class="cls-1" d="M92.76,21.69V6.93h3.79V8.12a6.46,6.46,0,0,1,4.16-1.49A6.61,6.61,0,0,1,105.8,9c1,1.16,1.52,2.65,1.52,5.17v7.52h-3.95V13.87a3.61,3.61,0,0,0-.87-2.77,3.1,3.1,0,0,0-2.22-.82,4.68,4.68,0,0,0-3.57,1.82v9.59Z"/><path class="cls-3" d="M117.46,6.63a8.63,8.63,0,0,0-5.94,14.9,1.71,1.71,0,0,0,2.22.12,6.15,6.15,0,0,1,7.35,0,1.72,1.72,0,0,0,2.23-.13,8.63,8.63,0,0,0-5.86-14.89m0,12.93a4.18,4.18,0,0,1-4.29-4.29,4.3,4.3,0,1,1,8.59,0,4.18,4.18,0,0,1-4.3,4.29"/><polygon class="cls-1" points="133.81 21.69 130.87 21.69 125.02 6.93 128.95 6.93 132.16 15.37 135.31 6.93 138.6 6.93 141.72 15.37 144.95 6.93 148.89 6.93 143.03 21.69 140.1 21.69 136.95 13.29 133.81 21.69"/><polygon class="cls-2" points="146.73 19.82 146.73 20.14 146.23 20.14 146.23 21.69 145.87 21.69 145.87 20.14 145.37 20.14 145.37 19.82 146.73 19.82"/><polygon class="cls-2" points="147.95 20.94 148.63 19.82 148.89 19.82 148.89 21.69 148.53 21.69 148.53 20.64 148.08 21.38 147.82 21.38 147.38 20.64 147.38 21.69 147.01 21.69 147.01 19.82 147.27 19.82 147.95 20.94"/></g></g></svg>