<?xml version="1.0" encoding="utf-8"?>
<!-- Generator: Adobe Illustrator 21.1.0, SVG Export Plug-In . SVG Version: 6.00 Build 0)  -->
<svg version="1.1" id="Capa_1" xmlns="http://www.w3.org/2000/svg" xmlns:xlink="http://www.w3.org/1999/xlink" x="0px" y="0px"
	 viewBox="0 0 50 50" style="enable-background:new 0 0 50 50;" xml:space="preserve">
<style type="text/css">
	.st0{fill-rule:evenodd;clip-rule:evenodd;fill:#5E98CF;}
	.st1{fill:#044E87;}
	.st2{fill:#0062A2;}
	.st3{fill:#FFFFFF;}
</style>
<g>
	<g>
		<path class="st0" d="M25,17.6c-4.1,0-7.4,3.3-7.4,7.4c0,1.3,0.4,2.6,1,3.6l12.7-7.3C30.1,19.1,27.7,17.6,25,17.6z"/>
		<path class="st0" d="M10.2,25c0-8.2,6.6-14.8,14.8-14.8c5.5,0,10.2,3,12.8,7.4l8.9-5.1c-0.4-0.6-0.9-1.2-1.6-1.6
			C39.2,7.5,33.2,4.1,27.3,0.7c-1.6-0.9-3.1-0.9-4.7,0C20.2,2.1,8.4,8.9,4.9,10.9c-1.4,0.8-2.2,2.1-2.2,3.8c0,6.9,0,13.7,0,20.6
			c0,0.8,0.2,1.6,0.5,2.2l8.9-5.1C10.9,30.2,10.2,27.7,10.2,25z"/>
	</g>
	<g>
		<path class="st1" d="M18.6,28.6c1.3,2.2,3.7,3.7,6.4,3.7c2.8,0,5.1-1.5,6.4-3.7l-6.3-3.7L18.6,28.6z"/>
		<path class="st1" d="M25,39.8c-5.5,0-10.3-3-12.8-7.4l-8.9,5.1c0.4,0.6,0.9,1.2,1.6,1.6c3.5,2,15.3,8.8,17.7,10.2
			c1.6,0.9,3.1,1,4.7,0c5.9-3.4,11.8-6.8,17.8-10.2c0.7-0.4,1.3-1,1.6-1.6l-8.9-5.2C35.3,36.8,30.5,39.8,25,39.8z"/>
	</g>
	<path class="st2" d="M47.2,14.7c0-0.8-0.2-1.6-0.5-2.2L25.1,24.9l21.7,12.5c0.3-0.6,0.5-1.4,0.5-2.2C47.2,35.3,47.2,21.6,47.2,14.7
		z M39.9,25.8h-1.7v1.7h-1.7v-1.7h-1.7v-1.7h1.7v-1.7h1.7v1.7h1.7V25.8z M46.1,25.8h-1.7v1.7h-1.7v-1.7H41v-1.7h1.7v-1.7h1.7v1.7
		h1.7V25.8z"/>
	<g>
		<polygon class="st3" points="44.4,22.4 42.7,22.4 42.7,24.1 41,24.1 41,25.8 42.7,25.8 42.7,27.5 44.4,27.5 44.4,25.8 46.1,25.8 
			46.1,24.1 44.4,24.1 		"/>
		<polygon class="st3" points="38.2,22.4 36.5,22.4 36.5,24.1 34.8,24.1 34.8,25.8 36.5,25.8 36.5,27.5 38.2,27.5 38.2,25.8 
			39.9,25.8 39.9,24.1 38.2,24.1 		"/>
		<path class="st3" d="M31.4,28.6c-1.3,2.2-3.7,3.7-6.4,3.7c-2.7,0-5.1-1.5-6.4-3.7c-0.6-1.1-1-2.3-1-3.6c0-4.1,3.3-7.4,7.4-7.4
			c2.7,0,5.1,1.5,6.4,3.7l6.4-3.7c-2.6-4.4-7.3-7.4-12.8-7.4c-8.2,0-14.8,6.6-14.8,14.8c0,2.7,0.7,5.2,2,7.4
			c2.5,4.4,7.3,7.4,12.8,7.4c5.5,0,10.3-3,12.8-7.4L31.4,28.6z"/>
	</g>
</g>
</svg>
