<?xml version="1.0" encoding="utf-8"?>
<!-- Generator: Adobe Illustrator 26.4.1, SVG Export Plug-In . SVG Version: 6.00 Build 0)  -->
<svg version="1.1" id="Layer_1" xmlns="http://www.w3.org/2000/svg" xmlns:xlink="http://www.w3.org/1999/xlink" x="0px" y="0px"
	 viewBox="0 0 151.9 145.1" style="enable-background:new 0 0 151.9 145.1;" xml:space="preserve">
<style type="text/css">
	.st0{fill:url(#SVGID_1_);}
	.st1{fill:url(#SVGID_00000059302456480632003870000017008244541295657387_);}
	.st2{fill:#14559A;}
	.st3{fill:url(#SVGID_00000057860112713762211430000009666370418607455403_);}
	.st4{fill:#3092C4;}
	.st5{fill:#1969BC;}
	.st6{fill:url(#SVGID_00000176012874085346543420000000753284488623631260_);}
	.st7{fill:url(#SVGID_00000101817223027399606550000006001889489707201721_);}
	.st8{fill:url(#SVGID_00000052082131006525332200000003654733965432349081_);}
	.st9{fill:#2B74B1;}
	.st10{fill:#125A9E;}
	.st11{fill:url(#SVGID_00000102528362578201398230000016066556897262080683_);}
	.st12{fill:url(#SVGID_00000112609983223573157030000010645957870344126621_);}
	.st13{fill:#0D82CA;}
	.st14{fill:url(#SVGID_00000098191284798405657460000003443162214168698272_);}
	.st15{fill:#127BCA;}
	.st16{fill:url(#SVGID_00000053515682539378347720000011078974322484178103_);}
	.st17{fill:url(#SVGID_00000082365908623689058850000017567794019944548240_);}
	.st18{fill:#05A1E6;}
	.st19{fill:url(#SVGID_00000182519962324476438000000013280478019641010307_);}
	.st20{fill:url(#SVGID_00000077290323478427776110000011786968339761701266_);}
	.st21{fill:url(#SVGID_00000037666176022830465210000001087861267539393435_);}
	.st22{fill:#079AE1;}
	.st23{fill:#1E5CB3;}
	.st24{fill:#1D60B5;}
	.st25{fill:#175FAB;}
	.st26{fill:url(#SVGID_00000030481359536195483920000007048159942768688047_);}
	.st27{fill:#7DCBEC;}
	.st28{fill:#5EC5ED;}
	.st29{fill:url(#SVGID_00000140717069366133904670000007610724132605351051_);}
	.st30{fill:url(#SVGID_00000176011560227145954070000015191562949678652091_);}
	.st31{fill:url(#SVGID_00000171719803932576289880000009567830768292819386_);}
</style>
<g>
	<g transform="translate(26.734177, 116.658228)">
		<path d="M100.1-40.3c0-0.9-0.9-0.7-1.6-0.7v1.5C99.2-39.5,100.2-39.5,100.1-40.3L100.1-40.3z M101-37.2h-0.8
			c-0.3-0.7-0.7-2.1-1.7-1.9v1.9h-0.6v-4.4c2-0.5,4.4,1.2,1.7,2.4v0C100.2-39.1,100.7-37.6,101-37.2L101-37.2z M102.4-39.3
			c0.1-4-6.3-4-6.1,0C96.1-35.3,102.5-35.3,102.4-39.3L102.4-39.3z M102.8-39.3c0.1,4.5-7.1,4.5-7,0
			C95.7-43.8,102.9-43.8,102.8-39.3L102.8-39.3z"/>
		<path d="M8.4-27H6.3c0-2.8-0.1-13.1,0.2-15.8h0C6.7-42.7-0.1-27.7-0.4-27h-1C-1.8-28-8.5-42.3-8.2-42.8h0c0.2,2,0.1,13.4,0.1,15.8
			h-2.1v-18.2h2.8c0.6,1.5,6.1,13.6,6.4,14.9h0.1c0.4-1.3,5.9-13.3,6.6-14.9h2.7L8.4-27L8.4-27z"/>
		<path d="M15-27h-2.1v-13H15V-27L15-27z M15.3-44.7c0,1.8-2.8,1.8-2.7,0C12.6-46.5,15.4-46.5,15.3-44.7L15.3-44.7z"/>
		<path d="M28-27.6c-12.8,5.9-12.8-17.2,0-12.1v2.1c-10-5.8-10.1,14.1,0,8V-27.6L28-27.6z"/>
		<path d="M37.9-37.9c-6.1-2.6-4.5,7.6-4.7,10.9h-2.1v-13h2.1v2.7h0.1c0.5-2.1,2.7-3.5,4.7-2.7C37.9-40.1,37.9-37.9,37.9-37.9z"/>
		<path d="M49.6-33.5c0.7-6.8-9.1-6.6-8.5,0.1C40.5-27,50.3-26.9,49.6-33.5 M51.7-33.6c0.7,8.9-13.4,9.1-12.8,0.2
			C38.1-42.4,52.4-42.8,51.7-33.6"/>
		<path d="M62-30.5c0,3.8-5.3,4.6-8,3v-2.2c3.5,3.3,9.3-0.7,3.2-3c-6.9-2.6-1.2-10,4.2-7v2.1c-1.8-1.8-6.9-0.8-4.7,2.2
			C58.4-34.1,62.3-33.4,62-30.5"/>
		<path d="M74.8-33.5c0.7-6.8-9.2-6.6-8.5,0.1C65.7-27,75.5-26.9,74.8-33.5 M76.9-33.6c0.7,8.9-13.4,9.1-12.8,0.2
			C63.4-42.4,77.6-42.8,76.9-33.6"/>
		<path d="M86.1-44.5c-3.1-1.6-3.9,1.9-3.6,4.4h3.1v1.8h-3.1V-27h-2.1v-11.3h-2.2v-1.8h2.2c-0.7-3.7,1.6-7.7,5.7-6.3V-44.5
			L86.1-44.5z"/>
		<path d="M94.3-27.2c-7,3.1-5.2-7.4-5.4-11.1h-2.2v-1.8H89v-3.2c0.7-0.2,1.4-0.4,2.1-0.7v3.9h3.3v1.8h-3.3
			c0.5,2.2-1.8,12.1,3.3,9.3V-27.2L94.3-27.2z"/>
	</g>
	<g transform="translate(0.000000, 160.405063)">
		<path d="M8.3-19.9c0.1,4.9-7.6,4.9-7.4,0C0.8-24.9,8.4-24.8,8.3-19.9"/>
		<path d="M55-16.9h-6.8C47.1-19.2,22.1-56.3,22-58.1h-0.2c0.6,3.4,0.1,36.8,0.3,41.1h-5.6v-47.8h7.3C24.5-63.6,50-23.9,49.7-24h0.1
			c-0.7-3.9-0.2-35.9-0.3-40.7H55L55-16.9L55-16.9z"/>
		<path d="M91-16.9H65.6v-47.8h24.3v5.1H71.2v15.9h17.3v5.1H71.2V-22H91V-16.9L91-16.9z"/>
		<path d="M129.4-59.7h-13.8v42.8H110v-42.8H96.2v-5.1h33.2V-59.7L129.4-59.7z"/>
	</g>
	<g transform="translate(0.810127, 0.000000)">
		
			<linearGradient id="SVGID_1_" gradientUnits="userSpaceOnUse" x1="-170.5703" y1="198.0918" x2="-170.5703" y2="197.2116" gradientTransform="matrix(45.6076 0 0 -81.335 7844.9673 16113.502)">
			<stop  offset="0" style="stop-color:#0994DC"/>
			<stop  offset="0.35" style="stop-color:#66CEF5"/>
			<stop  offset="0.35" style="stop-color:#66CEF5"/>
			<stop  offset="0.8462" style="stop-color:#127BCA"/>
			<stop  offset="0.8462" style="stop-color:#127BCA"/>
			<stop  offset="1" style="stop-color:#127BCA"/>
		</linearGradient>
		<path class="st0" d="M52.3,13c5.4,16.5,7.5,46,23.3,46c0.7,0,4.3-0.2,3.2-0.5c-14-3.8-15.7-32.6-24.4-47.5l0,0
			C53.7,11.7,53,12.4,52.3,13"/>
		
			<linearGradient id="SVGID_00000173125268371761247970000014575451812156304280_" gradientUnits="userSpaceOnUse" x1="-170.7416" y1="198.0925" x2="-170.7416" y2="197.2123" gradientTransform="matrix(47.8692 0 0 -83.4083 8241.6621 16522.4473)">
			<stop  offset="0" style="stop-color:#0E76BC"/>
			<stop  offset="0.36" style="stop-color:#36AEE8"/>
			<stop  offset="0.36" style="stop-color:#36AEE8"/>
			<stop  offset="0.8462" style="stop-color:#00ADEF"/>
			<stop  offset="0.8462" style="stop-color:#00ADEF"/>
			<stop  offset="1" style="stop-color:#00ADEF"/>
		</linearGradient>
		<path style="fill:url(#SVGID_00000173125268371761247970000014575451812156304280_);" d="M54.4,11.1c8.8,15.1,10.5,44.3,24.9,47.6
			c0.7-0.2,4-0.7,3-1.1C69.7,50.9,66.1,23,56.2,9.5l0,0C55.6,10,55,10.5,54.4,11.1"/>
		<path class="st2" d="M67,2.1c-4.8,0.1-8.9,1.6-13.4,4.4c0.9,0.9,1.7,1.9,2.5,3c4.5-3.7,8.5-6,13.7-7.1C69,2.2,68,2.1,67,2.1"/>
		
			<linearGradient id="SVGID_00000004538604524338058960000014743570050880347015_" gradientUnits="userSpaceOnUse" x1="-170.8253" y1="197.2691" x2="-170.8253" y2="197.9606" gradientTransform="matrix(45.4522 0 0 -84.5 7847.6553 16726.668)">
			<stop  offset="0" style="stop-color:#1C63B7"/>
			<stop  offset="0.5" style="stop-color:#33BDF2"/>
			<stop  offset="1" style="stop-color:#33BDF2;stop-opacity:0.4196"/>
		</linearGradient>
		<path style="fill:url(#SVGID_00000004538604524338058960000014743570050880347015_);" d="M92.7,52c1.3-1,2.6-2.2,4-3.5
			c-6-17.6-7.4-50.1-26.8-46.1C84.4,6,86.2,37.6,92.7,52"/>
		<path class="st4" d="M69.9,2.4C69,2.2,68,2.1,67,2.1l6.3,0C72.1,2.1,71,2.2,69.9,2.4"/>
		<path class="st5" d="M92.4,55.5c-0.6-0.6-1.2-1.2-1.8-1.9c-2.7,1.9-5.3,3.3-8,4.3c3.7,1.9,9.5,1.5,12.9,0
			C94.4,57.2,93.4,56.4,92.4,55.5"/>
		
			<linearGradient id="SVGID_00000158713466558478728820000013318836483891873664_" gradientUnits="userSpaceOnUse" x1="-170.7411" y1="198.0562" x2="-170.7411" y2="197.176" gradientTransform="matrix(45.0105 0 0 -86.5982 7764.5757 17143.7734)">
			<stop  offset="0" style="stop-color:#166AB8"/>
			<stop  offset="0.4" style="stop-color:#36AEE8"/>
			<stop  offset="0.4" style="stop-color:#36AEE8"/>
			<stop  offset="0.8462" style="stop-color:#0798DD"/>
			<stop  offset="0.8462" style="stop-color:#0798DD"/>
			<stop  offset="1" style="stop-color:#0798DD"/>
		</linearGradient>
		<path style="fill:url(#SVGID_00000158713466558478728820000013318836483891873664_);" d="M66.1,3.5c13,6.8,14.1,37.6,24.5,50.1
			l0,0c0.7-0.5,1.4-1,2.1-1.6l0,0C86.2,37.6,84.4,6,69.9,2.4C68.6,2.7,67.4,3,66.1,3.5"/>
		
			<linearGradient id="SVGID_00000119811849329081467830000010123517057052526996_" gradientUnits="userSpaceOnUse" x1="-171.2693" y1="198.0992" x2="-171.2693" y2="197.2191" gradientTransform="matrix(58.3509 0 0 -92.0822 10067.1348 18234.2754)">
			<stop  offset="0" style="stop-color:#124379"/>
			<stop  offset="0.39" style="stop-color:#1487CB"/>
			<stop  offset="0.39" style="stop-color:#1487CB"/>
			<stop  offset="0.7802" style="stop-color:#165197"/>
			<stop  offset="0.7802" style="stop-color:#165197"/>
			<stop  offset="1" style="stop-color:#165197"/>
		</linearGradient>
		<path style="fill:url(#SVGID_00000119811849329081467830000010123517057052526996_);" d="M56.2,9.5c10,13.6,13.5,42,26.4,48.3
			c2.7-0.9,5.3-2.4,8-4.3l0,0C80.3,41,79.1,10.3,66.1,3.5C62.8,4.7,59.5,6.7,56.2,9.5"/>
		
			<linearGradient id="SVGID_00000106121961670187284750000015141396639521255828_" gradientUnits="userSpaceOnUse" x1="-166.405" y1="196.7209" x2="-165.8148" y2="196.7209" gradientTransform="matrix(19.4176 0 0 -30.9219 3272.0493 6100.7168)">
			<stop  offset="0" style="stop-color:#33BDF2;stop-opacity:0.698"/>
			<stop  offset="1" style="stop-color:#1DACD8"/>
		</linearGradient>
		<path style="fill:url(#SVGID_00000106121961670187284750000015141396639521255828_);" d="M45.9,12.6c-1.6,3.5-3.2,8.2-5.1,14.2
			c3.8-5.4,7.7-10.1,11.5-13.8c-0.5-1.6-1.1-3.1-1.7-4.4C49.1,9.8,47.5,11.1,45.9,12.6"/>
		<path class="st9" d="M52,7.6c-0.5,0.3-0.9,0.7-1.4,1c0.6,1.3,1.2,2.8,1.7,4.4c0.7-0.7,1.4-1.3,2.1-2C53.6,9.8,52.9,8.6,52,7.6"/>
		<path class="st10" d="M53.7,6.5c-0.5,0.3-1.1,0.7-1.6,1.1c0.8,1,1.6,2.2,2.4,3.5c0.6-0.5,1.2-1.1,1.8-1.6
			C55.4,8.4,54.5,7.4,53.7,6.5"/>
		
			<linearGradient id="SVGID_00000144337766214599242080000008473152638632246426_" gradientUnits="userSpaceOnUse" x1="-172.2891" y1="197.4454" x2="-172.2891" y2="198.0198" gradientTransform="matrix(79.1425 0 0 -98.6787 13762.3086 19539.3984)">
			<stop  offset="0" style="stop-color:#136AB4"/>
			<stop  offset="0.6" style="stop-color:#59CAF5;stop-opacity:0.549"/>
			<stop  offset="1" style="stop-color:#59CAF5;stop-opacity:0.2353"/>
		</linearGradient>
		<path style="fill:url(#SVGID_00000144337766214599242080000008473152638632246426_);" d="M142.3,0.8
			c-8.5,30.1-22.4,52.6-38.7,57.9c14.7,1.8,25.3-20.9,46.7-57.9L142.3,0.8L142.3,0.8z"/>
		
			<linearGradient id="SVGID_00000125589505272441149000000005348225487583451008_" gradientUnits="userSpaceOnUse" x1="-171.4609" y1="197.7181" x2="-170.8707" y2="197.7181" gradientTransform="matrix(72.0226 0 0 -99.1613 12349.2568 19637.3359)">
			<stop  offset="0" style="stop-color:#05A1E6;stop-opacity:0.2471"/>
			<stop  offset="1" style="stop-color:#05A1E6"/>
		</linearGradient>
		<path style="fill:url(#SVGID_00000125589505272441149000000005348225487583451008_);" d="M38.2,3.2C38.2,3.2,38.3,3.2,38.2,3.2
			c0.1-0.1,0.2-0.1,0.3-0.1c1.3-0.5,2.8-0.8,4.2-1C27.5,1.2,9.2,27,0.2,60.6h1.6C13.7,38.8,20.1,9.1,38.2,3.2"/>
		<path class="st13" d="M45.9,12.6c1.6-1.5,3.1-2.8,4.7-4c-0.4-0.8-0.7-1.5-1.1-2.2C48.3,8,47.1,10,45.9,12.6"/>
		<path class="st13" d="M47.1,3.4c0.9,0.8,1.7,1.8,2.4,3c0.2-0.3,0.5-0.5,0.7-0.8c-1-1-2.1-1.7-3.3-2.3C47,3.4,47,3.4,47.1,3.4"/>
		
			<linearGradient id="SVGID_00000007396983304778192410000010706861794431613592_" gradientUnits="userSpaceOnUse" x1="-170.1721" y1="197.1132" x2="-170.1721" y2="197.9" gradientTransform="matrix(49.0511 0 0 -73.8222 8370.709 14608.6895)">
			<stop  offset="0" style="stop-color:#318ED5"/>
			<stop  offset="1" style="stop-color:#38A7E4"/>
		</linearGradient>
		<path style="fill:url(#SVGID_00000007396983304778192410000010706861794431613592_);" d="M9.3,46.8C21.4,22.7,28.9,6.5,37.9,3.4
			C27.2,7.8,15.2,23.6,9.3,46.8"/>
		<path class="st15" d="M50.2,5.7c-0.2,0.2-0.5,0.5-0.7,0.8c0.4,0.7,0.8,1.4,1.1,2.2c0.5-0.4,0.9-0.7,1.4-1
			C51.4,6.9,50.8,6.2,50.2,5.7"/>
		
			<linearGradient id="SVGID_00000115512986498237533930000009157112595420502423_" gradientUnits="userSpaceOnUse" x1="-169.9831" y1="197.3948" x2="-169.9831" y2="198.3863" gradientTransform="matrix(45.6036 0 0 -57.1283 7779.2456 11334.4414)">
			<stop  offset="0" style="stop-color:#05A1E6"/>
			<stop  offset="1" style="stop-color:#05A1E6;stop-opacity:0.549"/>
		</linearGradient>
		<path style="fill:url(#SVGID_00000115512986498237533930000009157112595420502423_);" d="M15,60.5c-0.3,0-0.7,0.1-1,0.1
			C35,61,36.1,40.1,40.9,26.9c-5.3,7.5-10.6,16.4-16,26.4C22.3,58,18.3,60,15,60.5"/>
		
			<linearGradient id="SVGID_00000043452989435553110680000015682052493559772605_" gradientUnits="userSpaceOnUse" x1="-170.4685" y1="197.3981" x2="-170.4685" y2="197.9883" gradientTransform="matrix(52.5191 0 0 -81.0936 8983.3096 16068.2031)">
			<stop  offset="0" style="stop-color:#1959A6"/>
			<stop  offset="0.5" style="stop-color:#05A1E6"/>
			<stop  offset="0.5" style="stop-color:#05A1E6"/>
			<stop  offset="0.9176" style="stop-color:#7EC5EA"/>
			<stop  offset="1" style="stop-color:#7EC5EA"/>
		</linearGradient>
		<path style="fill:url(#SVGID_00000043452989435553110680000015682052493559772605_);" d="M15,60.5L15,60.5
			c3.4-0.4,7.3-2.4,9.9-7.3l0,0c5.4-10,10.7-18.9,16-26.4l0,0c1.9-6.1,3.5-10.7,5.1-14.2l0,0C35.4,22.7,24.8,39.4,15,60.5"/>
		<path class="st18" d="M9.3,46.8C7,51.1,4.6,55.7,1.8,60.6h4.8C7.3,55.8,8.2,51.2,9.3,46.8"/>
		
			<linearGradient id="SVGID_00000098902281163352826240000011952127399114117536_" gradientUnits="userSpaceOnUse" x1="-171.191" y1="197.4552" x2="-171.3169" y2="197.9794" gradientTransform="matrix(72.6768 0 0 -99.0047 12473.9092 19606.4199)">
			<stop  offset="0" style="stop-color:#165096"/>
			<stop  offset="1" style="stop-color:#0D82CA"/>
		</linearGradient>
		<path style="fill:url(#SVGID_00000098902281163352826240000011952127399114117536_);" d="M42.3,2.2c0,0-0.1,0-0.1,0
			c-0.1,0-0.1,0-0.2,0c0,0-0.1,0-0.1,0c-0.1,0-0.1,0-0.2,0c0,0-0.1,0-0.1,0c-0.1,0-0.3,0-0.4,0.1h0c-0.1,0-0.1,0-0.2,0
			c0,0-0.1,0-0.1,0c-0.1,0-0.1,0-0.2,0c0,0-0.1,0-0.1,0c-0.2,0.1-0.4,0.1-0.7,0.2c0,0,0,0-0.1,0c-0.1,0-0.1,0-0.2,0.1l0,0
			c0,0-0.1,0-0.1,0c-0.1,0-0.1,0-0.2,0.1c0,0,0,0-0.1,0C39.1,2.9,39,3,38.8,3l0,0l0,0c-0.1,0-0.1,0-0.2,0.1l0,0c0,0-0.1,0-0.1,0
			c-0.1,0-0.1,0-0.2,0.1l0,0c0,0,0,0-0.1,0C27.7,7.4,21.8,22.7,9.3,46.8l0,0c-1.1,4.3-2,9-2.6,13.8l0,0c2.1,0,2.9,0,5.3,0
			c0.7,0,1.4,0,2.1,0c0.1,0,0.3,0,0.5,0h0c0.1,0,0.1,0,0.2,0h0c0.1,0,0.1,0,0.2,0c9.8-21,20.4-37.8,31-47.9l0,0
			c1.2-2.6,2.3-4.6,3.6-6.2l0,0c-0.7-1.2-1.5-2.3-2.4-3c0,0,0,0,0,0c-0.1,0-0.1,0-0.1-0.1c-0.1,0-0.1,0-0.1-0.1c0,0-0.1,0-0.1-0.1
			c-0.1,0-0.1,0-0.2-0.1c0,0-0.1,0-0.1-0.1C46.2,3.1,46.1,3,46,3c0,0-0.1,0-0.1,0c-0.1,0-0.1-0.1-0.2-0.1c0,0-0.1,0-0.1,0
			c-0.1,0-0.2-0.1-0.3-0.1h0c-0.1,0-0.2-0.1-0.3-0.1l0,0c0,0,0,0-0.1,0c-0.1,0-0.2-0.1-0.3-0.1c0,0,0,0-0.1,0
			c-0.2-0.1-0.5-0.1-0.7-0.2c0,0,0,0-0.1,0c-0.1,0-0.2,0-0.3,0l0,0c0,0,0,0-0.1,0c-0.1,0-0.2,0-0.4,0H43c-0.1,0-0.2,0-0.3,0
			C42.6,2.2,42.4,2.2,42.3,2.2"/>
		
			<linearGradient id="SVGID_00000169542190417823527380000002390684490232291765_" gradientUnits="userSpaceOnUse" x1="-170.5614" y1="197.1791" x2="-170.5614" y2="197.653" gradientTransform="matrix(32.7663 0 0 -57.2261 5705.8467 11311.8828)">
			<stop  offset="0" style="stop-color:#05A1E6"/>
			<stop  offset="0.8736" style="stop-color:#0495D6"/>
			<stop  offset="1" style="stop-color:#0495D6"/>
		</linearGradient>
		<path style="fill:url(#SVGID_00000169542190417823527380000002390684490232291765_);" d="M113.6,16.5c-2.4,7.7-4.4,14.1-6.1,19.3
			l0,0c6.6-9.1,13.1-20.6,19.3-33.8C119.6,4.4,115.8,9.6,113.6,16.5"/>
		
			<linearGradient id="SVGID_00000150099572958927410030000011520413860380895394_" gradientUnits="userSpaceOnUse" x1="-171.8345" y1="198.0137" x2="-172.0175" y2="197.3645" gradientTransform="matrix(60.2691 0 0 -96.3231 10486.2461 19071.75)">
			<stop  offset="0" style="stop-color:#38A7E4;stop-opacity:0.3294"/>
			<stop  offset="0.9615" style="stop-color:#0E88D3"/>
			<stop  offset="0.9615" style="stop-color:#0E88D3"/>
			<stop  offset="1" style="stop-color:#0E88D3"/>
		</linearGradient>
		<path style="fill:url(#SVGID_00000150099572958927410030000011520413860380895394_);" d="M107.7,57.2c-0.3,0.2-0.7,0.3-1,0.5
			c12.9-5.7,28.2-28.5,35.6-56.8h-1.5C123.9,31,118.5,51.2,107.7,57.2"/>
		<path class="st22" d="M99.3,54.7c2.8-3.4,5.1-9.2,8.2-18.8c-3.6,4.9-7.2,9.2-10.8,12.6c0,0,0,0,0,0C97.5,50.9,98.3,53,99.3,54.7"
			/>
		<path class="st5" d="M99.3,54.7c-1.2,1.4-2.3,2.4-3.8,3.1c1.2,0.6,2.5,1.1,3.9,1.2c1.4,0.2,2.8,0.1,4.1-0.2
			C101.9,58.2,100.5,56.7,99.3,54.7"/>
		<path class="st23" d="M75.6,59.1c2.4,0,4.7-0.5,7-1.3c1.7,0.8,3.6,1.3,5.5,1.3H75.6L75.6,59.1z"/>
		<path class="st23" d="M88.2,59.1c3,0,5.3-0.4,7.3-1.3c1.2,0.6,2.5,1.1,3.9,1.2c0.4,0,0.9,0.1,1.4,0.1L88.2,59.1L88.2,59.1z"/>
		<path class="st24" d="M100.8,59.1c0.9,0,1.9-0.1,2.8-0.3c0.6,0.2,1.2,0.3,1.8,0.3L100.8,59.1L100.8,59.1z"/>
		<path class="st25" d="M96.7,48.5L96.7,48.5c-2,1.9-3.9,3.5-6,5c1.4,1.7,3,3.2,4.9,4.2c1.5-0.7,2.7-1.7,3.8-3.1
			C98.3,53,97.5,50.9,96.7,48.5"/>
		
			<linearGradient id="SVGID_00000116207102816380626050000016414033488383564222_" gradientUnits="userSpaceOnUse" x1="-172.0857" y1="198.0008" x2="-172.0857" y2="197.3978" gradientTransform="matrix(70.2816 0 0 -98.1105 12214.5 19426.5996)">
			<stop  offset="0" style="stop-color:#168CD4"/>
			<stop  offset="0.5" style="stop-color:#1C87CC"/>
			<stop  offset="1" style="stop-color:#154B8D"/>
		</linearGradient>
		<path style="fill:url(#SVGID_00000116207102816380626050000016414033488383564222_);" d="M136.1,0.8c-0.5,0-6.7,0-6.9,0h-0.6
			c-0.4,0-0.8,0-1.2,0.1l0,0c-0.2,0.4-0.4,0.8-0.6,1.2l0,0c-6.2,13.2-12.7,24.7-19.3,33.8l0,0c-3.1,9.6-5.4,15.4-8.2,18.8l0,0
			c1.2,2,2.6,3.5,4.2,4.1c0,0,0.1,0,0.1,0h0c0,0,0.1,0,0.1,0c0.1,0,0.1,0,0.2-0.1c0,0,0.1,0,0.1,0c0.1,0,0.1,0,0.2,0
			c0,0,0.1,0,0.1,0c0.1,0,0.2-0.1,0.3-0.1c0,0,0.1,0,0.1,0c0.1,0,0.1,0,0.2-0.1c0.1,0,0.1,0,0.2-0.1c0,0,0.1,0,0.1,0
			c0.1,0,0.2-0.1,0.3-0.1c0,0,0.1,0,0.1,0c0.1,0,0.1,0,0.2-0.1c0,0,0.1,0,0.1,0c0.2-0.1,0.5-0.2,0.7-0.3h0c0.3-0.1,0.7-0.3,1-0.5
			c10.8-6,16.2-26.2,33.1-56.4L136.1,0.8L136.1,0.8z"/>
		<path class="st27" d="M42.7,2.2C42.7,2.2,42.8,2.2,42.7,2.2c0.3,0,0.5,0,0.8,0.1c0.6,0.1,1.3,0.2,1.8,0.5c1.8,0.6,3.5,1.6,4.9,3
			c0.4-0.4,0.8-0.8,1.2-1.1C48.9,2.9,45.9,1.9,42.7,2.2"/>
		<path class="st28" d="M50.2,5.7c0.6,0.6,1.2,1.2,1.8,1.9c0.5-0.4,1.1-0.7,1.6-1.1c-0.7-0.7-1.5-1.4-2.3-1.9
			C51,4.9,50.6,5.3,50.2,5.7"/>
		
			<linearGradient id="SVGID_00000173155382388588613710000015713513358138151355_" gradientUnits="userSpaceOnUse" x1="-169.315" y1="209.0074" x2="-168.8952" y2="210.3375" gradientTransform="matrix(32.4594 0 0 4.2491 5540.4736 -888.6616)">
			<stop  offset="0" style="stop-color:#97D6EE"/>
			<stop  offset="0.7033" style="stop-color:#55C1EA"/>
			<stop  offset="1" style="stop-color:#55C1EA"/>
		</linearGradient>
		<path style="fill:url(#SVGID_00000173155382388588613710000015713513358138151355_);" d="M42.7,2.2c3.2-0.3,6.2,0.7,8.7,2.4
			c2.4-1.9,5.2-2.5,9.2-2.5H41.4C41.8,2.1,42.3,2.1,42.7,2.2"/>
		
			<linearGradient id="SVGID_00000050635620621344557930000014375579789803338143_" gradientUnits="userSpaceOnUse" x1="-168.6284" y1="204.9539" x2="-168.222" y2="204.3022" gradientTransform="matrix(26.4722 0 0 7.484 4516.4492 -1527.6581)">
			<stop  offset="0" style="stop-color:#7ACCEC"/>
			<stop  offset="1" style="stop-color:#3FB7ED"/>
		</linearGradient>
		<path style="fill:url(#SVGID_00000050635620621344557930000014375579789803338143_);" d="M60.6,2.1c-4,0-6.8,0.6-9.2,2.5
			c0.8,0.6,1.5,1.2,2.2,1.9c4.5-2.8,8.5-4.4,13.4-4.4H60.6L60.6,2.1z"/>
		
			<linearGradient id="SVGID_00000140719987860689957490000002283014958125541518_" gradientUnits="userSpaceOnUse" x1="-171.531" y1="197.8466" x2="-171.531" y2="197.129" gradientTransform="matrix(52.0449 0 0 -80.6355 9039.3623 15957.3945)">
			<stop  offset="0" style="stop-color:#1DA7E7"/>
			<stop  offset="1" style="stop-color:#37ABE7;stop-opacity:0"/>
		</linearGradient>
		<path style="fill:url(#SVGID_00000140719987860689957490000002283014958125541518_);" d="M107.5,35.9c4.2-9.9,5.2-30.1,19.3-33.8
			c0.2-0.4,0.4-0.8,0.6-1.2c-11.8,0.7-17.3,6.7-20.1,15.6c-4.9,15.5-7.8,25.6-10.6,32C100.3,45,103.9,40.8,107.5,35.9"/>
		<path d="M124.8,54.9h-1.3v4.2h-0.5v-4.2h-1.3v-0.5h3.2V54.9L124.8,54.9z"/>
		<path d="M130.3,59.1h-0.5c0-0.7,0-3.3,0-4l0,0c0.1,0.1-1.7,3.8-1.7,4h-0.3c-0.1-0.3-1.8-3.9-1.7-4h0c0.1,0.5,0,3.4,0,4h-0.5v-4.7
			h0.7c0.2,0.4,1.6,3.5,1.6,3.8h0c0.1-0.4,1.5-3.4,1.7-3.8h0.7L130.3,59.1L130.3,59.1z"/>
	</g>
</g>
</svg>
