<?xml version="1.0" encoding="utf-8"?>
<!-- Generator: Adobe Illustrator 22.0.1, SVG Export Plug-In . SVG Version: 6.00 Build 0)  -->
<svg version="1.1" id="design" xmlns="http://www.w3.org/2000/svg" xmlns:xlink="http://www.w3.org/1999/xlink" x="0px" y="0px"
	 viewBox="0 0 107.6 51.5" style="enable-background:new 0 0 107.6 51.5;" xml:space="preserve">
<style type="text/css">
	.st0{clip-path:url(#SVGID_2_);}
	.st1{fill:url(#SVGID_3_);}
	.st2{clip-path:url(#SVGID_5_);}
	.st3{fill:url(#SVGID_6_);}
	.st4{fill:#005999;}
	.st5{filter:url(#Adobe_OpacityMaskFilter);}
	.st6{enable-background:new    ;}
	.st7{clip-path:url(#SVGID_9_);}
	.st8{clip-path:url(#SVGID_11_);}
	.st9{clip-path:url(#SVGID_13_);fill:url(#SVGID_14_);}
	.st10{mask:url(#SVGID_7_);}
	.st11{clip-path:url(#SVGID_16_);}
	.st12{clip-path:url(#SVGID_18_);}
	.st13{fill:url(#SVGID_19_);}
	.st14{filter:url(#Adobe_OpacityMaskFilter_1_);}
	.st15{clip-path:url(#SVGID_22_);}
	.st16{clip-path:url(#SVGID_24_);}
	.st17{clip-path:url(#SVGID_26_);fill:url(#SVGID_27_);}
	.st18{mask:url(#SVGID_20_);}
	.st19{clip-path:url(#SVGID_29_);fill:#0091BE;}
	.st20{fill:#006CB6;}
	.st21{clip-path:url(#SVGID_31_);}
	.st22{fill:url(#SVGID_32_);}
	.st23{clip-path:url(#SVGID_34_);}
	.st24{fill:url(#SVGID_35_);}
	.st25{filter:url(#Adobe_OpacityMaskFilter_2_);}
	.st26{clip-path:url(#SVGID_38_);}
	.st27{clip-path:url(#SVGID_40_);}
	.st28{clip-path:url(#SVGID_42_);fill:url(#SVGID_43_);}
	.st29{mask:url(#SVGID_36_);}
	.st30{clip-path:url(#SVGID_45_);fill:#00B8F1;}
	.st31{fill:#0078AE;}
	.st32{fill:#005E9C;}
	.st33{filter:url(#Adobe_OpacityMaskFilter_3_);}
	.st34{clip-path:url(#SVGID_48_);}
	.st35{clip-path:url(#SVGID_50_);}
	.st36{clip-path:url(#SVGID_52_);fill:url(#SVGID_53_);}
	.st37{mask:url(#SVGID_46_);}
	.st38{clip-path:url(#SVGID_55_);}
	.st39{clip-path:url(#SVGID_57_);}
	.st40{fill:url(#SVGID_58_);}
	.st41{filter:url(#Adobe_OpacityMaskFilter_4_);}
	.st42{clip-path:url(#SVGID_61_);}
	.st43{clip-path:url(#SVGID_63_);}
	.st44{clip-path:url(#SVGID_65_);fill:url(#SVGID_66_);}
	.st45{mask:url(#SVGID_59_);}
	.st46{clip-path:url(#SVGID_68_);fill:#00A0E3;}
	.st47{fill:#0082C5;}
	.st48{clip-path:url(#SVGID_70_);}
	.st49{fill:url(#SVGID_71_);}
	.st50{fill:#007DC4;}
	.st51{filter:url(#Adobe_OpacityMaskFilter_5_);}
	.st52{clip-path:url(#SVGID_74_);}
	.st53{clip-path:url(#SVGID_76_);}
	.st54{clip-path:url(#SVGID_78_);fill:url(#SVGID_79_);}
	.st55{mask:url(#SVGID_72_);}
	.st56{clip-path:url(#SVGID_81_);}
	.st57{clip-path:url(#SVGID_83_);}
	.st58{fill:url(#SVGID_84_);}
	.st59{clip-path:url(#SVGID_86_);}
	.st60{fill:url(#SVGID_87_);}
	.st61{fill:#00A0E3;}
	.st62{clip-path:url(#SVGID_89_);}
	.st63{fill:url(#SVGID_90_);}
	.st64{clip-path:url(#SVGID_92_);}
	.st65{fill:url(#SVGID_93_);}
	.st66{filter:url(#Adobe_OpacityMaskFilter_6_);}
	.st67{clip-path:url(#SVGID_96_);}
	.st68{clip-path:url(#SVGID_98_);}
	.st69{clip-path:url(#SVGID_100_);fill:url(#SVGID_101_);}
	.st70{mask:url(#SVGID_94_);}
	.st71{clip-path:url(#SVGID_103_);}
	.st72{clip-path:url(#SVGID_105_);}
	.st73{fill:url(#SVGID_106_);}
	.st74{fill:#009ADE;}
	.st75{fill:#0060AE;}
	.st76{fill:#0064B0;}
	.st77{fill:#0062A7;}
	.st78{clip-path:url(#SVGID_108_);}
	.st79{fill:url(#SVGID_109_);}
	.st80{filter:url(#Adobe_OpacityMaskFilter_7_);}
	.st81{clip-path:url(#SVGID_112_);}
	.st82{clip-path:url(#SVGID_114_);}
	.st83{clip-path:url(#SVGID_116_);fill:url(#SVGID_117_);}
	.st84{mask:url(#SVGID_110_);}
	.st85{clip-path:url(#SVGID_119_);fill:#6DC3E8;}
	.st86{clip-path:url(#SVGID_119_);fill:#37BDE9;}
	.st87{clip-path:url(#SVGID_119_);}
	.st88{clip-path:url(#SVGID_121_);}
	.st89{fill:url(#SVGID_122_);}
	.st90{clip-path:url(#SVGID_124_);}
	.st91{fill:url(#SVGID_125_);}
	.st92{filter:url(#Adobe_OpacityMaskFilter_8_);}
	.st93{clip-path:url(#SVGID_128_);}
	.st94{clip-path:url(#SVGID_130_);}
	.st95{clip-path:url(#SVGID_132_);fill:url(#SVGID_133_);}
	.st96{mask:url(#SVGID_126_);}
	.st97{clip-path:url(#SVGID_135_);}
	.st98{clip-path:url(#SVGID_137_);}
	.st99{fill:url(#SVGID_138_);}
	.st100{fill:#231F20;}
	.st101{fill-rule:evenodd;clip-rule:evenodd;fill:#EC2024;}
	.st102{fill-rule:evenodd;clip-rule:evenodd;fill:#008AC7;}
	.st103{fill:#E92D2F;stroke:#E92D2F;stroke-width:9.375000e-02;stroke-miterlimit:10;}
	.st104{fill:#0774BA;stroke:#0774BA;stroke-width:9.375000e-02;stroke-miterlimit:10;}
	.st105{fill-rule:evenodd;clip-rule:evenodd;fill:#6082BB;}
	.st106{fill:url(#SVGID_139_);}
	.st107{fill:url(#SVGID_140_);}
	.st108{fill:#539E43;}
	.st109{fill:#333333;}
	.st110{fill:url(#path-2_2_);}
	.st111{filter:url(#Adobe_OpacityMaskFilter_9_);}
	.st112{fill:#FFFFFF;}
	.st113{mask:url(#mask-3_4_);}
	.st114{fill:none;}
	.st115{fill:url(#SVGID_141_);}
	.st116{filter:url(#Adobe_OpacityMaskFilter_10_);}
	.st117{mask:url(#mask-3_3_);}
	.st118{fill:url(#SVGID_142_);}
	.st119{fill:url(#SVGID_143_);}
	.st120{fill:url(#SVGID_144_);}
	.st121{fill:url(#SVGID_145_);}
	.st122{fill:url(#SVGID_146_);}
</style>
<g>
	<g>
		<path class="st105" d="M21.5,17.3c3.4,0,5.6,0.6,6.7,1.9c1.1,1.2,1.4,3.4,0.8,6.4c-0.6,3.1-1.8,5.4-3.5,6.7c-1.7,1.3-4.4,2-8,2
			h-5.4l3.3-17H21.5L21.5,17.3z M0,51.5h8.8l2.1-10.8h7.6c3.3,0,6.1-0.4,8.2-1.1c2.2-0.7,4.1-1.9,5.9-3.5c1.5-1.4,2.7-2.9,3.6-4.5
			c0.9-1.6,1.6-3.5,2-5.4c0.9-4.8,0.2-8.6-2.1-11.2c-2.3-2.7-6.1-4-11.2-4h-17L0,51.5L0,51.5z"/>
		<path class="st105" d="M44.7,0.1h8.8l-2.1,10.8h7.8c4.9,0,8.3,0.9,10.2,2.6c1.9,1.7,2.4,4.5,1.7,8.3l-3.7,18.9h-8.9l3.5-17.9
			c0.4-2,0.3-3.4-0.4-4.2c-0.7-0.7-2.2-1.1-4.4-1.1h-7l-4.5,23.2h-8.8L44.7,0.1L44.7,0.1z"/>
		<path class="st105" d="M90.5,17.3c3.4,0,5.6,0.6,6.7,1.9c1.1,1.2,1.4,3.4,0.8,6.4c-0.6,3.1-1.8,5.4-3.5,6.7c-1.7,1.3-4.4,2-8,2
			h-5.4l3.3-17H90.5L90.5,17.3z M69,51.5h8.8l2.1-10.8h7.6c3.3,0,6.1-0.4,8.2-1.1c2.2-0.7,4.1-1.9,5.9-3.5c1.5-1.4,2.7-2.9,3.6-4.5
			c0.9-1.6,1.6-3.5,2-5.4c0.9-4.8,0.2-8.6-2.1-11.2c-2.3-2.7-6.1-4-11.2-4h-17L69,51.5L69,51.5z"/>
	</g>
</g>
</svg>
