<svg id="layer" xmlns="http://www.w3.org/2000/svg" xmlns:xlink="http://www.w3.org/1999/xlink" viewBox="0 0 83 67"><defs><style>.cls-1{fill:url(#linear-gradient);}.cls-2{fill:#fff;fill-rule:evenodd;}</style><linearGradient id="linear-gradient" x1="-56.99" y1="132.7" x2="-56.52" y2="133.17" gradientTransform="matrix(80, 0, 0, -80, 4582, 10654)" gradientUnits="userSpaceOnUse"><stop offset="0" stop-color="#1b660f"/><stop offset="1" stop-color="#6cae3e"/></linearGradient></defs><g id="Icon-Architecture_64_Arch_Amazon-Simple-Storage-Service_64" data-name="Icon-Architecture/64/Arch_Amazon-Simple-Storage-Service_64"><g id="Rectangle"><rect class="cls-1" x="22.5" width="38" height="38"/></g><g id="Icon-Service_64_Amazon-Simple-Storage-Service_64" data-name="Icon-Service/64/Amazon-Simple-Storage-Service_64"><path id="Amazon-Simple-Storage-Service-Icon_64_Squid" data-name="Amazon-Simple-Storage-Service-Icon 64 Squid" class="cls-2" d="M51.4,20.37l.18-1.28c1.68,1,1.7,1.42,1.7,1.43s-.29.25-1.88-.15Zm-.93-.25a75.93,75.93,0,0,1-8.59-3.51v0a1.14,1.14,0,1,0-1.14,1.14,1.11,1.11,0,0,0,.73-.27,72.87,72.87,0,0,0,8.87,3.61l-1.16,8.17v.07c0,.72-3.19,2-8.4,2s-8.48-1.32-8.48-2v-.07L29.88,11.57c2.09,1.44,6.6,2.2,10.91,2.2s8.8-.76,10.89-2.19ZM29.62,9.73c0-.63,3.63-3.08,11.17-3.08S51.92,9.1,52,9.73v.21c-.41,1.4-5.07,2.88-11.16,2.88S30,11.34,29.62,9.93Zm23.28,0c0-1.65-4.72-4-12.11-4s-12.12,2.39-12.12,4l0,.36,2.63,19.24c.07,2.16,5.81,3,9.43,3,4.5,0,9.28-1,9.35-2.95l1.13-8a7.21,7.21,0,0,0,1.58.23A1.45,1.45,0,0,0,54,21.14a1,1,0,0,0,.21-.79c-.13-.66-.91-1.37-2.5-2.27l1.13-8Z"/></g></g><path d="M6.47,51.3l-.78-2.18h-3L1.92,51.3H.56L3.5,43.41H4.9L7.83,51.3ZM5.35,48l-.74-2.14c-.05-.14-.13-.37-.22-.68s-.16-.53-.2-.67A11.7,11.7,0,0,1,3.77,46l-.71,2Z"/><path d="M13.74,51.3H12.47V47.63a1.65,1.65,0,0,0-.25-1,1,1,0,0,0-.81-.34,1.24,1.24,0,0,0-1.07.47A2.8,2.8,0,0,0,10,48.34v3H8.74V45.36h1l.18.77H10a1.6,1.6,0,0,1,.71-.65,2.4,2.4,0,0,1,1-.23,1.8,1.8,0,0,1,1.81.93h.09a1.74,1.74,0,0,1,.74-.68,2.29,2.29,0,0,1,1.1-.25,2,2,0,0,1,1.54.54,2.32,2.32,0,0,1,.49,1.63V51.3H16.23V47.63a1.65,1.65,0,0,0-.26-1,1,1,0,0,0-.81-.34,1.25,1.25,0,0,0-1.08.46,2.4,2.4,0,0,0-.34,1.41Z"/><path d="M23,51.3l-.25-.83h0a2.39,2.39,0,0,1-.86.74,2.75,2.75,0,0,1-1.12.19,1.85,1.85,0,0,1-1.36-.47,1.76,1.76,0,0,1-.5-1.34,1.56,1.56,0,0,1,.69-1.38,3.92,3.92,0,0,1,2.07-.51l1,0v-.32a1.17,1.17,0,0,0-.27-.85,1.06,1.06,0,0,0-.82-.29,2.89,2.89,0,0,0-.88.14,6.07,6.07,0,0,0-.8.32l-.41-.91a4.92,4.92,0,0,1,1.06-.38,4.67,4.67,0,0,1,1.08-.13,2.55,2.55,0,0,1,1.71.49,1.92,1.92,0,0,1,.58,1.55v4Zm-1.88-.86a1.52,1.52,0,0,0,1.1-.39A1.36,1.36,0,0,0,22.61,49v-.52l-.76,0a2.56,2.56,0,0,0-1.3.3.91.91,0,0,0-.41.81.8.8,0,0,0,.24.62A1,1,0,0,0,21.09,50.44Z"/><path d="M29.6,51.3H25.1v-.78l3-4.2H25.28v-1h4.24v.88l-2.94,4.09h3Z"/><path d="M36.16,48.32a3.24,3.24,0,0,1-.75,2.27,2.67,2.67,0,0,1-2.07.81A2.88,2.88,0,0,1,31.86,51a2.51,2.51,0,0,1-1-1.08,3.68,3.68,0,0,1-.34-1.63,3.19,3.19,0,0,1,.74-2.26,2.68,2.68,0,0,1,2.09-.81,2.59,2.59,0,0,1,2,.83A3.21,3.21,0,0,1,36.16,48.32Zm-4.32,0c0,1.37.5,2,1.52,2s1.5-.68,1.5-2-.5-2-1.51-2a1.31,1.31,0,0,0-1.16.53A2.74,2.74,0,0,0,31.84,48.32Z"/><path d="M42.84,51.3H41.57V47.64a1.55,1.55,0,0,0-.28-1,1,1,0,0,0-.87-.34,1.42,1.42,0,0,0-1.18.47,2.67,2.67,0,0,0-.37,1.59v3H37.61V45.36h1l.18.77h.06a1.73,1.73,0,0,1,.76-.65,2.64,2.64,0,0,1,1.1-.23,1.9,1.9,0,0,1,2.14,2.17Z"/><path d="M52.11,49.16a2,2,0,0,1-.75,1.65,3.35,3.35,0,0,1-2.09.59A4.9,4.9,0,0,1,47.09,51V49.78a5.66,5.66,0,0,0,1.14.39,4.68,4.68,0,0,0,1.12.15A1.82,1.82,0,0,0,50.48,50a1,1,0,0,0,.36-.78,1,1,0,0,0-.33-.75,5.11,5.11,0,0,0-1.38-.72,3.57,3.57,0,0,1-1.51-1,2.06,2.06,0,0,1-.44-1.34,1.89,1.89,0,0,1,.7-1.55,2.91,2.91,0,0,1,1.87-.56,5.55,5.55,0,0,1,2.25.5l-.41,1a5,5,0,0,0-1.87-.44,1.45,1.45,0,0,0-.95.27.9.9,0,0,0-.32.72,1,1,0,0,0,.13.52,1.27,1.27,0,0,0,.42.41,6.87,6.87,0,0,0,1.07.51,5.55,5.55,0,0,1,1.26.68,2,2,0,0,1,.6.7A2.19,2.19,0,0,1,52.11,49.16Z"/><path d="M53.42,43.78a.64.64,0,0,1,.72-.7.73.73,0,0,1,.52.18.71.71,0,0,1,.18.52.69.69,0,0,1-.18.51.86.86,0,0,1-1,0A.69.69,0,0,1,53.42,43.78Zm1.34,7.52H53.5V45.36h1.26Z"/><path d="M61.57,51.3H60.3V47.63a1.65,1.65,0,0,0-.25-1,.94.94,0,0,0-.81-.34,1.24,1.24,0,0,0-1.07.47,2.8,2.8,0,0,0-.34,1.59v3H56.57V45.36h1l.18.77h.07a1.6,1.6,0,0,1,.71-.65,2.4,2.4,0,0,1,1-.23,1.8,1.8,0,0,1,1.81.93h.09a1.74,1.74,0,0,1,.74-.68,2.29,2.29,0,0,1,1.1-.25,2,2,0,0,1,1.54.54,2.32,2.32,0,0,1,.49,1.63V51.3H64.06V47.63a1.65,1.65,0,0,0-.26-1,.94.94,0,0,0-.81-.34,1.25,1.25,0,0,0-1.08.46,2.4,2.4,0,0,0-.34,1.41Z"/><path d="M70.1,51.4a2.09,2.09,0,0,1-1.76-.81h-.07c0,.5.07.81.07.91v2.44H67.08V45.36h1c0,.11.09.37.18.79h.06a2,2,0,0,1,1.78-.9,2.07,2.07,0,0,1,1.73.8,4.43,4.43,0,0,1,0,4.54A2.08,2.08,0,0,1,70.1,51.4Zm-.31-5.12a1.33,1.33,0,0,0-1.1.44,2.28,2.28,0,0,0-.35,1.41v.19a2.78,2.78,0,0,0,.35,1.57,1.28,1.28,0,0,0,1.12.48,1.14,1.14,0,0,0,1-.54,2.7,2.7,0,0,0,.36-1.53,2.63,2.63,0,0,0-.36-1.51A1.17,1.17,0,0,0,69.79,46.28Z"/><path d="M75.2,51.3H73.94V42.94H75.2Z"/><path d="M79.6,51.4a2.87,2.87,0,0,1-2.17-.81,3.05,3.05,0,0,1-.78-2.22,3.4,3.4,0,0,1,.72-2.29,2.54,2.54,0,0,1,2-.83,2.45,2.45,0,0,1,1.85.71,2.72,2.72,0,0,1,.69,2v.68H78a1.93,1.93,0,0,0,.47,1.33,1.61,1.61,0,0,0,1.24.46,4.4,4.4,0,0,0,1-.1,4.45,4.45,0,0,0,1-.33v1a3.77,3.77,0,0,1-.93.31A5.89,5.89,0,0,1,79.6,51.4Zm-.23-5.2a1.28,1.28,0,0,0-1,.38A1.88,1.88,0,0,0,78,47.7h2.7a1.67,1.67,0,0,0-.36-1.12A1.21,1.21,0,0,0,79.37,46.2Z"/><path d="M6.37,62.16a2,2,0,0,1-.76,1.65,3.33,3.33,0,0,1-2.09.59A4.93,4.93,0,0,1,1.34,64V62.78a6.13,6.13,0,0,0,1.14.39,4.69,4.69,0,0,0,1.13.15A1.79,1.79,0,0,0,4.73,63a1,1,0,0,0,.36-.78,1,1,0,0,0-.33-.75,5.17,5.17,0,0,0-1.37-.72,3.61,3.61,0,0,1-1.52-1,2.12,2.12,0,0,1-.44-1.34,1.89,1.89,0,0,1,.7-1.55A2.93,2.93,0,0,1,4,56.33a5.52,5.52,0,0,1,2.25.5l-.41,1A5,5,0,0,0,4,57.43,1.42,1.42,0,0,0,3,57.7a.88.88,0,0,0-.33.72,1.05,1.05,0,0,0,.13.52,1.22,1.22,0,0,0,.43.41,6.64,6.64,0,0,0,1.06.51,5.66,5.66,0,0,1,1.27.68,1.94,1.94,0,0,1,.59.7A2,2,0,0,1,6.37,62.16Z"/><path d="M10,63.38a3.32,3.32,0,0,0,.92-.14v.95a2.56,2.56,0,0,1-.54.15,3.82,3.82,0,0,1-.68.06q-1.8,0-1.8-1.89v-3.2H7.06v-.56l.87-.46L8.36,57h.78v1.33h1.69v1H9.14v3.18a.92.92,0,0,0,.23.68A.84.84,0,0,0,10,63.38Z"/><path d="M17.35,61.32a3.24,3.24,0,0,1-.75,2.27,2.69,2.69,0,0,1-2.08.81A2.87,2.87,0,0,1,13.05,64a2.45,2.45,0,0,1-1-1.08,3.69,3.69,0,0,1-.35-1.63,3.24,3.24,0,0,1,.74-2.26,2.7,2.7,0,0,1,2.09-.81,2.59,2.59,0,0,1,2,.83A3.17,3.17,0,0,1,17.35,61.32Zm-4.33,0c0,1.37.51,2,1.52,2s1.51-.68,1.51-2-.51-2-1.52-2a1.29,1.29,0,0,0-1.15.53A2.65,2.65,0,0,0,13,61.32Z"/><path d="M21.81,58.25a3.65,3.65,0,0,1,.63,0l-.13,1.18a2,2,0,0,0-.55-.07,1.61,1.61,0,0,0-1.23.5,1.8,1.8,0,0,0-.47,1.28V64.3H18.8V58.36h1l.17,1H20a2.31,2.31,0,0,1,.77-.84A1.78,1.78,0,0,1,21.81,58.25Z"/><path d="M27.26,64.3,27,63.47h0a2.47,2.47,0,0,1-.86.74A2.78,2.78,0,0,1,25,64.4a1.89,1.89,0,0,1-1.37-.47,1.75,1.75,0,0,1-.49-1.34,1.57,1.57,0,0,1,.68-1.38,4,4,0,0,1,2.08-.51l1,0v-.32a1.17,1.17,0,0,0-.27-.85,1.08,1.08,0,0,0-.82-.29,2.84,2.84,0,0,0-.88.14,5.13,5.13,0,0,0-.8.32l-.41-.91a4.73,4.73,0,0,1,1.06-.38,4.67,4.67,0,0,1,1.08-.13,2.55,2.55,0,0,1,1.71.49,1.92,1.92,0,0,1,.58,1.55v4Zm-1.88-.86a1.56,1.56,0,0,0,1.1-.39A1.36,1.36,0,0,0,26.9,62v-.52l-.77,0a2.54,2.54,0,0,0-1.29.3.91.91,0,0,0-.41.81.8.8,0,0,0,.24.62A1,1,0,0,0,25.38,63.44Z"/><path d="M34.94,58.36v.69l-1,.19a1.65,1.65,0,0,1,.23.46,1.81,1.81,0,0,1,.09.58,1.77,1.77,0,0,1-.63,1.44,3.18,3.18,0,0,1-2.26.49.71.71,0,0,0-.41.59.31.31,0,0,0,.19.3,1.59,1.59,0,0,0,.7.11h1a2.3,2.3,0,0,1,1.49.41,1.49,1.49,0,0,1,.51,1.21A1.76,1.76,0,0,1,34,66.39a4.36,4.36,0,0,1-2.41.55,3.37,3.37,0,0,1-1.85-.43,1.39,1.39,0,0,1-.64-1.23,1.32,1.32,0,0,1,.35-.92,1.85,1.85,0,0,1,1-.52A.92.92,0,0,1,30,63.5a.87.87,0,0,1-.16-.5.9.9,0,0,1,.18-.57,2.49,2.49,0,0,1,.56-.45,1.8,1.8,0,0,1-.75-.65,1.92,1.92,0,0,1-.28-1,1.86,1.86,0,0,1,.61-1.5,2.51,2.51,0,0,1,1.73-.53l.53,0a3.16,3.16,0,0,1,.42.08Zm-4.67,6.86a.7.7,0,0,0,.37.63,2,2,0,0,0,1,.22,3.1,3.1,0,0,0,1.54-.3.89.89,0,0,0,.5-.78.59.59,0,0,0-.27-.55,2.22,2.22,0,0,0-1-.17h-1a1.34,1.34,0,0,0-.86.26A.85.85,0,0,0,30.27,65.22Zm.54-4.94a1.21,1.21,0,0,0,.29.86,1.09,1.09,0,0,0,.82.3c.73,0,1.1-.39,1.1-1.17a1.34,1.34,0,0,0-.27-.9,1,1,0,0,0-.83-.31,1.06,1.06,0,0,0-.83.31A1.36,1.36,0,0,0,30.81,60.28Z"/><path d="M38.63,64.4a2.9,2.9,0,0,1-2.17-.81,3.05,3.05,0,0,1-.78-2.22,3.35,3.35,0,0,1,.73-2.29,2.52,2.52,0,0,1,2-.83,2.47,2.47,0,0,1,1.86.71,2.76,2.76,0,0,1,.68,2v.68H37a2,2,0,0,0,.47,1.33,1.62,1.62,0,0,0,1.24.46,4.34,4.34,0,0,0,1-.1,4.52,4.52,0,0,0,1-.33v1a3.7,3.7,0,0,1-.94.31A5.74,5.74,0,0,1,38.63,64.4Zm-.23-5.2a1.27,1.27,0,0,0-1,.38A1.82,1.82,0,0,0,37,60.7h2.7a1.67,1.67,0,0,0-.35-1.12A1.23,1.23,0,0,0,38.4,59.2Z"/><path d="M49.9,62.16a2,2,0,0,1-.76,1.65,3.35,3.35,0,0,1-2.09.59A4.9,4.9,0,0,1,44.87,64V62.78a6.13,6.13,0,0,0,1.14.39,4.68,4.68,0,0,0,1.12.15A1.82,1.82,0,0,0,48.26,63a1,1,0,0,0,.36-.78,1,1,0,0,0-.33-.75,5.11,5.11,0,0,0-1.38-.72,3.57,3.57,0,0,1-1.51-1A2.12,2.12,0,0,1,45,58.44a1.89,1.89,0,0,1,.7-1.55,2.91,2.91,0,0,1,1.87-.56,5.55,5.55,0,0,1,2.25.5l-.41,1a5,5,0,0,0-1.87-.44,1.45,1.45,0,0,0-1,.27.9.9,0,0,0-.32.72,1.05,1.05,0,0,0,.13.52,1.22,1.22,0,0,0,.43.41,6.64,6.64,0,0,0,1.06.51,5.66,5.66,0,0,1,1.27.68,2,2,0,0,1,.59.7A2.19,2.19,0,0,1,49.9,62.16Z"/><path d="M53.88,64.4a2.87,2.87,0,0,1-2.17-.81,3.05,3.05,0,0,1-.78-2.22,3.4,3.4,0,0,1,.72-2.29,2.52,2.52,0,0,1,2-.83A2.46,2.46,0,0,1,55.5,59a2.71,2.71,0,0,1,.68,2v.68h-4a1.92,1.92,0,0,0,.46,1.33,1.64,1.64,0,0,0,1.24.46,4.45,4.45,0,0,0,2-.43v1a3.77,3.77,0,0,1-.93.31A5.89,5.89,0,0,1,53.88,64.4Zm-.24-5.2a1.27,1.27,0,0,0-1,.38,1.82,1.82,0,0,0-.43,1.12h2.69a1.62,1.62,0,0,0-.35-1.12A1.23,1.23,0,0,0,53.64,59.2Z"/><path d="M60.63,58.25a3.48,3.48,0,0,1,.63,0l-.12,1.18a2.1,2.1,0,0,0-.56-.07,1.61,1.61,0,0,0-1.23.5,1.8,1.8,0,0,0-.47,1.28V64.3H57.62V58.36h1l.16,1h.07a2.4,2.4,0,0,1,.77-.84A1.82,1.82,0,0,1,60.63,58.25Z"/><path d="M63.71,64.3l-2.25-5.94h1.33L64,61.81a7.2,7.2,0,0,1,.38,1.41h0a9.94,9.94,0,0,1,.37-1.41L66,58.36h1.35L65.08,64.3Z"/><path d="M68.17,56.78a.68.68,0,0,1,.19-.52.86.86,0,0,1,1,0,.71.71,0,0,1,.18.52.69.69,0,0,1-.18.51.86.86,0,0,1-1,0A.66.66,0,0,1,68.17,56.78Zm1.34,7.52H68.25V58.36h1.26Z"/><path d="M73.71,64.4a2.62,2.62,0,0,1-2-.78,3.29,3.29,0,0,1-.7-2.26,3.37,3.37,0,0,1,.73-2.31,2.75,2.75,0,0,1,2.12-.8,3.84,3.84,0,0,1,1.69.35l-.38,1a3.73,3.73,0,0,0-1.32-.31c-1,0-1.54.68-1.54,2.05a2.51,2.51,0,0,0,.38,1.5,1.36,1.36,0,0,0,1.13.5,3.27,3.27,0,0,0,1.6-.42V64a2.42,2.42,0,0,1-.73.29A4.12,4.12,0,0,1,73.71,64.4Z"/><path d="M79.36,64.4a2.87,2.87,0,0,1-2.17-.81,3.05,3.05,0,0,1-.78-2.22,3.4,3.4,0,0,1,.72-2.29,2.54,2.54,0,0,1,2-.83A2.45,2.45,0,0,1,81,59a2.72,2.72,0,0,1,.69,2v.68h-4a1.92,1.92,0,0,0,.46,1.33,1.65,1.65,0,0,0,1.25.46,4.4,4.4,0,0,0,1-.1,4.45,4.45,0,0,0,1-.33v1a3.77,3.77,0,0,1-.93.31A5.89,5.89,0,0,1,79.36,64.4Zm-.23-5.2a1.28,1.28,0,0,0-1,.38,1.88,1.88,0,0,0-.43,1.12h2.69a1.62,1.62,0,0,0-.35-1.12A1.21,1.21,0,0,0,79.13,59.2Z"/></svg>