<svg id="layer" xmlns="http://www.w3.org/2000/svg" xmlns:xlink="http://www.w3.org/1999/xlink" viewBox="0 0 83 67"><defs><style>.cls-1{fill:url(#linear-gradient);}.cls-2{fill:#fff;fill-rule:evenodd;}</style><linearGradient id="linear-gradient" x1="-472.77" y1="132.7" x2="-472.3" y2="133.18" gradientTransform="matrix(80, 0, 0, -80, 37844.41, 10654)" gradientUnits="userSpaceOnUse"><stop offset="0" stop-color="#2e27ad"/><stop offset="1" stop-color="#527fff"/></linearGradient></defs><g id="Icon-Architecture_64_Arch_Amazon-RDS_64" data-name="Icon-Architecture/64/Arch_Amazon-RDS_64"><g id="Icon-Architecture-BG_64_Database" data-name="Icon-Architecture-BG/64/Database"><rect id="Rectangle" class="cls-1" x="22.5" width="38" height="38"/></g><path id="Amazon-RDS_Icon_64_Squid" data-name="Amazon-RDS Icon 64 Squid" class="cls-2" d="M29.82,6.65l4.42,4.41-.68.68L29.15,7.32v3.61H28.2V6.18a.47.47,0,0,1,.47-.48h4.75v1Zm25-.47v4.75h-.95V7.32l-4.41,4.42-.68-.68,4.42-4.41h-3.6v-1h4.75a.47.47,0,0,1,.47.48Zm-.95,20.9h.95v4.75a.47.47,0,0,1-.47.47H49.58v-.95h3.6l-4.42-4.41.68-.68,4.41,4.42Zm-.24-8.45c0-1.58-1.82-3.14-4.87-4.17l.31-.9c3.5,1.19,5.51,3,5.51,5.07s-2,3.88-5.51,5.06l-.31-.9c3-1,4.87-2.59,4.87-4.16Zm-24.2,0c0,1.51,1.71,3,4.56,4.05l-.32.9c-3.3-1.19-5.19-3-5.19-4.95s1.89-3.76,5.19-4.95l.32.89c-2.85,1-4.56,2.55-4.56,4.06Zm4.83,8.31-4.42,4.41h3.6v.95H28.67a.47.47,0,0,1-.47-.47V27.08h.95v3.6l4.41-4.42ZM41.5,14.86c-3.39,0-5.23-.88-5.23-1.23s1.84-1.24,5.23-1.24,5.23.88,5.23,1.24-1.84,1.23-5.23,1.23Zm0,3.68c-3.25,0-5.24-.89-5.24-1.37V14.86a12,12,0,0,0,5.23,1,12,12,0,0,0,5.23-1v2.31c0,.48-2,1.37-5.22,1.37Zm0,3.63c-3.25,0-5.24-.89-5.24-1.37V18.46a11.43,11.43,0,0,0,5.24,1,11.34,11.34,0,0,0,5.22-1V20.8c0,.48-2,1.37-5.22,1.37Zm0,3.25c-3.38,0-5.23-.91-5.23-1.37v-2a11.43,11.43,0,0,0,5.24,1,11.34,11.34,0,0,0,5.22-1v2c0,.46-1.85,1.37-5.23,1.37Zm0-14c-3,0-6.17.68-6.17,2.19V24.05c0,1.52,3.1,2.32,6.17,2.32s6.17-.8,6.17-2.32V13.63c0-1.51-3.2-2.19-6.17-2.19Z"/></g><path d="M7.55,56.16l-1-2.68H2.91L2,56.16H.3l3.61-9.68H5.62l3.61,9.68Zm-1.38-4-.9-2.62c-.06-.17-.15-.45-.27-.83s-.2-.65-.24-.83a14.64,14.64,0,0,1-.52,1.77l-.87,2.51Z"/><path d="M16.48,56.16H14.92v-4.5a2.06,2.06,0,0,0-.31-1.25,1.18,1.18,0,0,0-1-.41,1.54,1.54,0,0,0-1.32.58,3.44,3.44,0,0,0-.42,2v3.63H10.33V48.87h1.22l.22,1h.07a2.13,2.13,0,0,1,.88-.8A2.85,2.85,0,0,1,14,48.74a2.22,2.22,0,0,1,2.23,1.14h.11a2.12,2.12,0,0,1,.91-.84,2.88,2.88,0,0,1,1.34-.3,2.48,2.48,0,0,1,1.9.65,2.92,2.92,0,0,1,.6,2v4.75H19.53v-4.5a2.05,2.05,0,0,0-.32-1.25,1.18,1.18,0,0,0-1-.41,1.53,1.53,0,0,0-1.32.57,2.87,2.87,0,0,0-.42,1.72Z"/><path d="M27.8,56.16l-.31-1h0a2.89,2.89,0,0,1-1.06.91,3.37,3.37,0,0,1-1.37.24,2.3,2.3,0,0,1-1.68-.58,2.18,2.18,0,0,1-.6-1.64,1.94,1.94,0,0,1,.83-1.7,4.91,4.91,0,0,1,2.56-.63l1.25,0v-.39a1.46,1.46,0,0,0-.32-1,1.34,1.34,0,0,0-1-.35,3.49,3.49,0,0,0-1.08.17,8.48,8.48,0,0,0-1,.39l-.5-1.11a5,5,0,0,1,1.3-.47,5.81,5.81,0,0,1,1.33-.16,3.17,3.17,0,0,1,2.1.6,2.4,2.4,0,0,1,.71,1.91v4.91ZM25.5,55.1a1.88,1.88,0,0,0,1.35-.47,1.7,1.7,0,0,0,.51-1.32v-.63l-.94,0a3.24,3.24,0,0,0-1.59.36,1.11,1.11,0,0,0-.49,1,1,1,0,0,0,.29.76A1.27,1.27,0,0,0,25.5,55.1Z"/><path d="M35.94,56.16H30.41v-1l3.69-5.15H30.64V48.87h5.2V50l-3.61,5h3.71Z"/><path d="M44,52.5a4,4,0,0,1-.91,2.79,3.31,3.31,0,0,1-2.56,1,3.44,3.44,0,0,1-1.8-.46,3.07,3.07,0,0,1-1.21-1.33,4.5,4.5,0,0,1-.42-2A3.94,3.94,0,0,1,38,49.73a3.31,3.31,0,0,1,2.56-1,3.25,3.25,0,0,1,2.51,1A4,4,0,0,1,44,52.5Zm-5.3,0q0,2.52,1.86,2.52c1.23,0,1.85-.84,1.85-2.52S41.78,50,40.54,50a1.61,1.61,0,0,0-1.42.65A3.31,3.31,0,0,0,38.69,52.5Z"/><path d="M52.19,56.16H50.63V51.68a1.92,1.92,0,0,0-.34-1.26A1.32,1.32,0,0,0,49.21,50a1.72,1.72,0,0,0-1.43.58,3.18,3.18,0,0,0-.46,2v3.63H45.77V48.87H47l.21,1h.08a2.18,2.18,0,0,1,.94-.8,3.09,3.09,0,0,1,1.34-.28,2.34,2.34,0,0,1,2.63,2.67Z"/><path d="M59.59,52.31v3.85H58V46.52h2.73a4.45,4.45,0,0,1,2.76.7,2.53,2.53,0,0,1,.89,2.11,2.63,2.63,0,0,1-1.87,2.56l2.72,4.27H63.45l-2.31-3.85Zm0-1.31h1.09a2.46,2.46,0,0,0,1.6-.41,1.46,1.46,0,0,0,.49-1.21,1.32,1.32,0,0,0-.53-1.17,2.91,2.91,0,0,0-1.61-.36h-1Z"/><path d="M74.48,51.25a4.8,4.8,0,0,1-1.33,3.65,5.31,5.31,0,0,1-3.81,1.26h-2.7V46.52h3a4.92,4.92,0,0,1,3.58,1.24A4.65,4.65,0,0,1,74.48,51.25Zm-1.66,0q0-3.46-3.24-3.46H68.22v7h1.12C71.66,54.83,72.82,53.66,72.82,51.3Z"/><path d="M82.11,53.54a2.43,2.43,0,0,1-.93,2,4,4,0,0,1-2.57.73,6.05,6.05,0,0,1-2.67-.51V54.29a6.8,6.8,0,0,0,1.4.49,5.82,5.82,0,0,0,1.38.18,2.19,2.19,0,0,0,1.38-.36,1.15,1.15,0,0,0,.44-1,1.18,1.18,0,0,0-.41-.92,6,6,0,0,0-1.68-.89,4.47,4.47,0,0,1-1.86-1.22A2.58,2.58,0,0,1,76.05,49a2.33,2.33,0,0,1,.85-1.9,3.58,3.58,0,0,1,2.3-.69A6.66,6.66,0,0,1,82,47l-.5,1.28a6,6,0,0,0-2.3-.54,1.75,1.75,0,0,0-1.16.34,1.09,1.09,0,0,0-.39.88,1.19,1.19,0,0,0,.16.64,1.47,1.47,0,0,0,.52.5,8.83,8.83,0,0,0,1.3.63,7.18,7.18,0,0,1,1.56.82,2.43,2.43,0,0,1,.72.87A2.51,2.51,0,0,1,82.11,53.54Z"/></svg>