<?xml version="1.0" encoding="utf-8"?>
<!-- Generator: Adobe Illustrator 22.0.1, SVG Export Plug-In . SVG Version: 6.00 Build 0)  -->
<svg version="1.1" id="Layer_1" xmlns="http://www.w3.org/2000/svg" xmlns:xlink="http://www.w3.org/1999/xlink" x="0px" y="0px"
	 viewBox="0 0 706.3 170" style="enable-background:new 0 0 706.3 170;" xml:space="preserve">
<style type="text/css">
	.st0{fill:#0BBCD4;}
</style>
<g>
	<path class="st0" d="M257.1,113.1V69.7l-18.9,48.2c-0.7,1.6-2.2,2.7-4,2.7c-1.8,0-3.3-1.1-4-2.7l-18.9-48.2v43.4
		c0,4-3.2,7.5-7.3,7.5c-4.2,0-7.6-3.5-7.6-7.5V61.5c0-6.7,5.5-12.1,12.1-12.1c5.2,0,9.6,3.2,11.4,7.8l14.2,36.4l14.4-36.4
		c1.7-4.6,6.1-7.8,11.2-7.8c6.8,0,12.2,5.5,12.2,12.1V113c0,4-3.3,7.5-7.6,7.5C260.4,120.5,257.1,117.1,257.1,113.1z"/>
	<path class="st0" d="M360.5,113c0,4.2-3.4,7.6-7.6,7.6c-3.2,0-6-2.1-7-5l-2.8-8.1h-31.4l-2.8,8.1c-0.9,2.9-3.9,5-7.1,5
		c-4.2,0-7.6-3.3-7.6-7.6c0-0.9,0.2-1.9,0.6-2.6l20.4-52.6c1.9-4.9,6.6-8.3,12.2-8.3c5.6,0,10.4,3.5,12.2,8.3l20.3,52.6
		C360.1,111.2,360.5,112,360.5,113z M338.4,94.5l-11-31.5l-11.1,31.5H338.4z"/>
	<path class="st0" d="M430.5,113.1V90.6h-32.9v22.6c0,4-3.2,7.5-7.3,7.5c-4.2,0-7.6-3.5-7.6-7.5V56.8c0-4.1,3.3-7.5,7.5-7.5
		s7.5,3.3,7.5,7.5v20.7h32.9V56.8c0-4.1,3.3-7.5,7.6-7.5c4.1,0,7.5,3.3,7.5,7.5V113c0,4-3.3,7.5-7.6,7.5S430.5,117.1,430.5,113.1z"
		/>
	<path class="st0" d="M505.1,48.9c21.1,0,36.5,15,36.5,36.1c0,21-15.4,36.1-36.5,36.1c-21,0-36.4-15-36.4-36.1
		C468.8,64,484.1,48.9,505.1,48.9z M505.1,62.1C492.2,62.1,484,72,484,85c0,12.9,8.2,22.9,21.1,22.9s21.3-9.9,21.3-22.9
		C526.3,72,518,62.1,505.1,62.1z"/>
	<path class="st0" d="M565.1,56.9c0-4.2,3.3-7.6,7.6-7.6c4.2,0,7.6,3.3,7.6,7.6v34.6c0,9.7,5.3,16.4,16.2,16.4
		c10.7,0,16-6.7,16-16.4V56.9c0-4.2,3.3-7.6,7.6-7.6c4.2,0,7.6,3.3,7.6,7.6v35c0,17.4-9.9,29.2-31.1,29.2
		c-21.3,0-31.3-11.9-31.3-29.1V56.9z"/>
	<path class="st0" d="M670.3,113.1v-50h-14.5c-3.6,0-6.6-2.9-6.6-6.5c0-3.7,3-6.6,6.6-6.6h44c3.6,0,6.6,2.9,6.6,6.6
		c0,3.6-3,6.5-6.6,6.5h-14.5v50c0,4-3.3,7.5-7.5,7.5C673.7,120.5,670.3,117.1,670.3,113.1z"/>
</g>
<g>
	<g>
		<path class="st0" d="M67.1,140.1v-17.6c-7-1.3-12.3-7.5-12.3-14.8c0-3,0.9-5.9,2.5-8.3L42.5,88.5L27.8,99.4
			c1.6,2.4,2.5,5.2,2.5,8.3s-0.9,6-2.6,8.3l33.5,26.4C63,141.3,65,140.4,67.1,140.1z M72.7,140.1c2.1,0.4,4.1,1.2,5.8,2.5l33.5-26.4
			c-1.6-2.4-2.5-5.3-2.5-8.3c0-3,0.9-6,2.5-8.3l-14.6-11L82.5,99.4c1.6,2.4,2.5,5.2,2.5,8.3c0,7.4-5.3,13.5-12.3,14.8V140.1z
			 M82.4,146.6c1.6,2.4,2.5,5.3,2.5,8.3c0,8.3-6.8,15.1-15.1,15.1s-15.1-6.8-15.1-15.1c0-3.1,0.9-5.9,2.6-8.3l-33.5-26.4
			c-2.5,1.7-5.4,2.7-8.6,2.7c-8.3,0-15.1-6.8-15.1-15.1c0-7.4,5.3-13.5,12.3-14.8V77.2C5.3,75.8,0,69.7,0,62.3
			C0,54,6.8,47.2,15.1,47.2c3.2,0,6.1,1,8.6,2.7l33.5-26.4c-1.5-2.5-2.5-5.3-2.5-8.4C54.8,6.8,61.6,0,69.9,0S85,6.8,85,15.1
			c0,3.1-0.9,5.9-2.5,8.3L116,49.9c2.5-1.7,5.4-2.7,8.6-2.7c8.3,0,15.1,6.8,15.1,15.1c0,7.4-5.3,13.5-12.3,14.8v15.7
			c7,1.3,12.3,7.5,12.3,14.8c0,8.3-6.8,15.1-15.1,15.1c-3.2,0-6.1-1-8.6-2.7L82.4,146.6z M23.8,95.3L37.7,85L23.8,74.7
			c-1.7,1.2-3.7,2.1-5.9,2.5v15.7C20.1,93.2,22.1,94.1,23.8,95.3z M27.8,70.6l14.7,10.9l14.7-10.9c-1.5-2.4-2.5-5.3-2.5-8.3
			c0-7.4,5.3-13.5,12.3-14.8V29.9c-2.1-0.4-4.1-1.2-5.8-2.5L27.8,53.9c1.5,2.5,2.5,5.3,2.5,8.4C30.2,65.4,29.3,68.3,27.8,70.6z
			 M116,95.3c1.7-1.2,3.7-2.1,5.9-2.5V77.2c-2.2-0.4-4.2-1.2-5.9-2.5L102.1,85L116,95.3z M112.1,54L78.6,27.6
			c-1.7,1.2-3.7,2.1-5.8,2.5v17.6c7,1.3,12.3,7.5,12.3,14.8c0,3-0.9,6-2.5,8.3l14.6,10.8L112,70.6c-1.6-2.4-2.5-5.2-2.5-8.3
			C109.6,59.2,110.5,56.4,112.1,54z M61.2,95.3c2.5-1.7,5.5-2.7,8.7-2.7s6.2,1,8.7,2.7L92.5,85L78.6,74.7c-2.5,1.7-5.5,2.7-8.7,2.7
			s-6.2-1-8.7-2.7L47.3,85L61.2,95.3z M69.9,71.8c5.2,0,9.4-4.3,9.4-9.4s-4.3-9.4-9.4-9.4c-5.2,0-9.4,4.3-9.4,9.4
			S64.7,71.8,69.9,71.8z M69.9,117.1c5.2,0,9.4-4.3,9.4-9.4c0-5.2-4.3-9.4-9.4-9.4c-5.2,0-9.4,4.3-9.4,9.4
			C60.4,112.9,64.7,117.1,69.9,117.1z M124.7,71.8c5.2,0,9.4-4.3,9.4-9.4s-4.3-9.4-9.4-9.4c-5.2,0-9.4,4.3-9.4,9.4
			S119.5,71.8,124.7,71.8z M124.7,117.1c5.2,0,9.4-4.3,9.4-9.4c0-5.2-4.3-9.4-9.4-9.4c-5.2,0-9.4,4.3-9.4,9.4
			C115.2,112.9,119.5,117.1,124.7,117.1z M15.1,71.8c5.2,0,9.4-4.3,9.4-9.4s-4.3-9.4-9.4-9.4s-9.4,4.3-9.4,9.4S9.9,71.8,15.1,71.8z
			 M15.1,117.1c5.2,0,9.4-4.3,9.4-9.4c0-5.2-4.3-9.4-9.4-9.4s-9.4,4.3-9.4,9.4C5.7,112.9,9.9,117.1,15.1,117.1z M69.9,164.3
			c5.2,0,9.4-4.3,9.4-9.4s-4.3-9.4-9.4-9.4c-5.2,0-9.4,4.3-9.4,9.4S64.7,164.3,69.9,164.3z M69.9,24.6c5.2,0,9.4-4.3,9.4-9.4
			s-4.3-9.4-9.4-9.4c-5.2,0-9.4,4.3-9.4,9.4S64.7,24.6,69.9,24.6z"/>
	</g>
</g>
</svg>
