<?xml version="1.0" encoding="utf-8"?>
<!-- Generator: Adobe Illustrator 22.0.1, SVG Export Plug-In . SVG Version: 6.00 Build 0)  -->
<svg version="1.1" id="design" xmlns="http://www.w3.org/2000/svg" xmlns:xlink="http://www.w3.org/1999/xlink" x="0px" y="0px"
	 viewBox="0 0 63.3 51.1" style="enable-background:new 0 0 63.3 51.1;" xml:space="preserve">
<style type="text/css">
	.st0{fill:#0089D6;}
	.st1{fill:url(#SVGID_1_);}
	.st2{fill:url(#SVGID_2_);}
	.st3{fill:url(#SVGID_3_);}
	.st4{fill:#231F1F;}
	.st5{fill-rule:evenodd;clip-rule:evenodd;fill:#00678F;}
	.st6{fill-rule:evenodd;clip-rule:evenodd;fill:#E38D1A;}
	.st7{fill:#ED1C24;}
	.st8{fill:#336791;}
	.st9{fill:#FFFFFF;}
</style>
<g>
	<g transform="matrix(.569 0 0 .569 199.451 -82.735)">
		
			<linearGradient id="SVGID_1_" gradientUnits="userSpaceOnUse" x1="-26184.7305" y1="-17568.6914" x2="-26163.459" y2="-17581.2617" gradientTransform="matrix(0.1187 0 0 0.1187 2807.8052 2286.6951)">
			<stop  offset="0" style="stop-color:#909CA9"/>
			<stop  offset="1" style="stop-color:#EDEDEE"/>
		</linearGradient>
		<path class="st1" d="M-275.2,174l-12.3,4l-10.7,4.7l-3,0.8c-0.8,0.7-1.6,1.5-2.4,2.2c-0.9,0.8-1.8,1.6-2.5,2.1
			c-0.8,0.6-1.9,1.7-2.4,2.4c-0.8,1.1-1.5,2.2-1.8,3c-0.5,1.6-0.3,3.1,0.7,4.6c1.3,1.9,3.8,3.7,6.7,5c1.5,0.7,4,1.5,5.9,2
			c3.1,0.8,9.2,1.7,12.6,1.8c0.7,0,1.6,0,1.6,0c0.1,0,0.6-1,1.2-2.3c2.1-4.2,3.5-8.1,4.4-11.5c0.5-2,0.9-4.8,1.1-8
			c0.1-0.9,0.1-3.9,0-4.9c-0.1-1.7-0.2-3-0.5-4.4c0-0.2,0-0.4,0-0.4c0,0,0.1-0.1,1.7-0.5L-275.2,174L-275.2,174L-275.2,174
			L-275.2,174z M-278,175.7c0.1,0,0.4,2.8,0.5,4.6c0,0.4,0,0.6,0,0.6c-0.1,0-1.6-0.9-2.6-1.5c-0.9-0.6-2.7-1.8-3-2
			c-0.1-0.1-0.1-0.1,0.7-0.3C-281.1,176.6-278.1,175.7-278,175.7z M-284.2,177.7c0.1,0,0.3,0.1,0.8,0.4c1.9,1.2,4.5,2.6,5.6,3.1
			c0.3,0.1,0.4,0.1-0.4,0.6c-1.7,1.2-3.8,2.3-6.4,3.4c-0.5,0.2-0.8,0.4-0.8,0.4c0,0,0-0.2,0.1-0.5c0.6-2.3,1-4.6,1-6.5
			C-284.3,177.7-284.3,177.7-284.2,177.7C-284.2,177.7-284.2,177.7-284.2,177.7L-284.2,177.7z M-285.5,178.2c0.1,0.1,0,2.1-0.1,2.7
			c-0.2,1.4-0.4,2.6-0.9,4c-0.1,0.3-0.2,0.6-0.2,0.6c0,0-1.3-1.2-1.7-1.7c-0.7-0.8-1.3-1.7-1.7-2.5c-0.2-0.4-0.5-1.2-0.5-1.3
			C-290.4,180.1-285.5,178.2-285.5,178.2L-285.5,178.2z M-291.6,180.6C-291.6,180.6-291.6,180.6-291.6,180.6c0,0,0.1,0.2,0.2,0.3
			c0.3,0.8,1,2,1.5,2.8c0.6,0.8,1.5,1.7,2.1,2.3c0.2,0.2,0.4,0.4,0.5,0.4c0.1,0.1,0.1,0-1.4,0.6c-1.8,0.7-3.7,1.3-5.9,2
			c-0.5,0.2-1,0.3-1.6,0.5c-0.1,0-0.1,0,0.2-0.4c1.1-1.7,2.7-5,3.7-7.4c0.2-0.4,0.3-0.8,0.3-0.9c0-0.1,0.1-0.2,0.2-0.2
			C-291.7,180.6-291.6,180.6-291.6,180.6L-291.6,180.6z M-293.4,181.4c0,0-0.4,1-0.9,1.9c-0.9,1.8-1.9,3.5-3.2,5.6
			c-0.2,0.4-0.4,0.7-0.5,0.7c0,0.1-0.1,0-0.2-0.2c-0.3-0.6-0.6-1.4-0.7-2.2c-0.1-0.7-0.1-2,0-2.8c0.1-0.6,0.1-0.6,0.4-0.7
			C-297.3,183.1-293.5,181.3-293.4,181.4L-293.4,181.4z M-277.4,182v0.4c0,2.1-0.2,4.9-0.5,7c-0.1,0.4-0.1,0.7-0.1,0.7
			c0,0-0.3-0.1-0.6-0.2c-1.4-0.4-2.9-1.1-4.3-1.8c-0.9-0.5-2.2-1.3-2.2-1.3c0,0,0.4-0.2,0.9-0.5c1.8-0.9,3.6-2,5.1-3
			c0.6-0.4,1.4-1,1.6-1.2L-277.4,182L-277.4,182z M-300.4,184.8c0,0,0,0.1,0,0.4c0,0.2-0.1,0.7-0.1,1c-0.1,1.4,0.1,2.4,0.8,3.7
			c0.2,0.4,0.3,0.7,0.3,0.7c-0.1,0.1-6.2,1.9-8.1,2.4c-0.6,0.2-1.1,0.3-1.1,0.3c-0.1,0-0.1,0,0-0.1c0.2-1.4,1.3-3.1,2.7-4.6
			c1-1,1.7-1.6,3.1-2.3C-302,185.6-300.6,184.8-300.4,184.8C-300.5,184.8-300.5,184.8-300.4,184.8L-300.4,184.8z M-286,187.4
			c0,0,0.2,0.1,0.5,0.3c2,1.2,4.8,2.2,7.1,2.8l0.2,0l-0.3,0.2c-1.2,0.7-5.3,2.4-9.4,3.9c-0.6,0.2-1.2,0.4-1.3,0.5
			c-0.1,0-0.2,0.1-0.2,0.1c0,0,0.2-0.3,0.4-0.7c1.2-2.2,2.3-4.8,2.9-6.7C-286,187.5-286,187.4-286,187.4L-286,187.4z M-287.4,187.8
			c0,0-0.1,0.2-0.2,0.4c-0.8,2-1.9,4.1-3.2,6.5c-0.3,0.6-0.6,1.1-0.6,1.1c0,0-0.3-0.2-0.6-0.4c-2-1.2-3.7-2.7-4.9-4.1l-0.2-0.2
			l0.8-0.2c3-0.8,5.6-1.7,8.1-2.8C-287.7,188-287.5,187.8-287.4,187.8z M-278.3,191C-278.3,191-278.3,191-278.3,191
			c0,0.2-0.5,2.1-0.9,3.5c-0.3,1.2-0.6,2.1-1.1,3.7c-0.2,0.7-0.4,1.3-0.4,1.3c0,0-0.1,0-0.1,0c-2.8-0.5-5.2-1.2-7.5-2.1
			c-0.6-0.3-1.6-0.7-1.6-0.7c0,0,0.5-0.3,1.2-0.6c4.2-1.8,8.6-3.9,10.1-4.8C-278.4,191.1-278.3,191-278.3,191L-278.3,191z
			 M-299.4,191.8c0,0-1.2,1.7-2.8,4c-0.6,0.8-1.2,1.8-1.5,2.1c-0.3,0.4-0.6,0.9-0.8,1.2l-0.4,0.6l-0.4-0.4c-0.5-0.4-1.3-1.3-1.7-1.8
			c-0.8-1-1.3-2-1.5-3c-0.1-0.4-0.1-0.7,0-0.7c0.1,0,2.6-0.6,4.9-1.2c1.3-0.3,2.8-0.6,3.3-0.8C-299.9,191.9-299.4,191.8-299.4,191.8
			L-299.4,191.8z M-298.3,192.2l0.3,0.3c1.3,1.5,2.7,2.6,4.4,3.6c0.3,0.2,0.5,0.3,0.5,0.3c-0.1,0-5.7,2.1-8.4,3
			c-1.5,0.5-2.7,0.9-2.7,0.9c0,0-0.1-0.1-0.2-0.1l-0.2-0.1l0.3-0.4c0.9-1.3,2-2.6,4.4-5.5L-298.3,192.2L-298.3,192.2z M-290.8,197.5
			c0,0,0.4,0.1,0.9,0.3c1.2,0.5,2.2,0.7,3.4,1.1c1.6,0.4,3.9,0.8,5.2,0.9c0.2,0,0.3,0,0.3,0.1c-0.1,0-1.4,0.5-2.4,0.8
			c-1.6,0.5-6.5,1.9-10.4,3.1c-0.7,0.2-1.4,0.4-1.4,0.4c-0.1,0-0.4-0.1-0.4-0.1c0,0,0.2-0.3,0.5-0.6c1.3-1.6,2.7-3.4,3.8-5.1
			C-291.1,197.9-290.8,197.5-290.8,197.5L-290.8,197.5z M-292.5,197.6c0,0-0.6,1.1-1.8,2.9c-0.5,0.8-1,1.6-1.2,1.9
			c-0.2,0.3-0.5,0.8-0.6,1l-0.3,0.5l-0.1,0c-0.3-0.1-2.7-0.9-3.3-1.2c-0.8-0.3-1.6-0.7-2.2-1c-0.7-0.4-1.7-1-1.6-1
			c0,0,1.3-0.4,2.8-0.8c4.1-1.1,6.3-1.7,7.8-2.2C-292.7,197.6-292.5,197.6-292.5,197.6L-292.5,197.6z M-280.9,200.3L-280.9,200.3
			c0,0.1-1.5,4.3-2,5.6c-0.1,0.3-0.2,0.4-0.2,0.4c-0.2,0-2.3-0.3-3.7-0.5c-2.3-0.4-6.2-1-7.2-1.3l-0.2,0l1.4-0.3
			c3-0.7,4.4-1,5.8-1.5c1.8-0.6,3.6-1.3,5.5-2.1C-281.2,200.4-281,200.3-280.9,200.3L-280.9,200.3z"/>
		
			<linearGradient id="SVGID_2_" gradientUnits="userSpaceOnUse" x1="-26183.8906" y1="-17985.0352" x2="-26166.7754" y2="-17985.0352" gradientTransform="matrix(0.1187 0 0 0.1187 2807.8052 2286.6951)">
			<stop  offset="0" style="stop-color:#939FAB"/>
			<stop  offset="1" style="stop-color:#DCDEE1"/>
		</linearGradient>
		<path class="st2" d="M-287.8,145.4c-0.2,0-3.5,1.2-5.6,2c-2.9,1.2-5.1,2.3-6.5,3.2c-0.5,0.4-1.2,1-1.3,1.3c0,0.1-0.1,0.2-0.1,0.3
			l1.2,1.2l3,0.9l7,1.3l8.1,1.4l0.1-0.7c0,0,0,0-0.1,0l-1.1-0.2l-0.2-0.4c-1.1-1.9-2.3-4.3-3-5.9c-0.5-1.3-1.1-2.7-1.4-3.7
			C-287.7,145.5-287.7,145.4-287.8,145.4L-287.8,145.4L-287.8,145.4L-287.8,145.4z M-288,145.9L-288,145.9c0,0,0.1,0.3,0.1,0.6
			c0.2,1.3,0.4,2.6,0.9,3.9c0.3,1,0.3,1-0.1,0.8c-0.9-0.3-5.2-1-8.3-1.4c-0.5-0.1-0.9-0.1-0.9-0.1c0,0,2.2-1.2,3.2-1.7
			C-291.7,147.4-288.2,145.9-288,145.9L-288,145.9z M-296.9,150l0.4,0.1c2,0.7,6.9,1.6,9.6,1.8c0.3,0,0.6,0.1,0.6,0.1
			c0,0-0.3,0.1-0.6,0.3c-1.3,0.7-2.8,1.5-3.8,2.1c-0.3,0.2-0.6,0.3-0.6,0.3c0,0-0.2,0-0.4-0.1l-0.4-0.1l-0.9-0.9
			c-1.6-1.6-2.9-2.8-3.4-3.3L-296.9,150z M-297.3,150.3l1.3,1.6c0.7,0.9,1.4,1.8,1.6,2c0.2,0.2,0.3,0.4,0.3,0.4c0,0-1.9-0.3-2.9-0.6
			c-1-0.2-1.4-0.3-2.1-0.5l-0.5-0.2v-0.1c0-0.6,0.8-1.5,2.1-2.5L-297.3,150.3L-297.3,150.3z M-286.2,152.5c0,0,0.1,0.1,0.2,0.3
			c0.3,0.7,1.3,2.6,1.5,2.9c0.1,0.1,0.2,0.1-1.1-0.1c-3.1-0.5-4.2-0.7-4.2-0.7c0,0,0.1-0.1,0.2-0.1c1-0.5,2-1.2,2.8-2
			C-286.4,152.8-286.2,152.6-286.2,152.5C-286.2,152.5-286.2,152.5-286.2,152.5L-286.2,152.5z"/>
		
			<radialGradient id="SVGID_3_" cx="3890.363" cy="-11919.5186" r="22.7252" gradientTransform="matrix(-0.114 -1.712736e-02 3.463960e-02 -0.228 573.3098 -2483.9714)" gradientUnits="userSpaceOnUse">
			<stop  offset="0" style="stop-color:#EE352C"/>
			<stop  offset="1" style="stop-color:#A91D22"/>
		</radialGradient>
		<path class="st3" d="M-301.1,151.8c0,0-0.2,0.3,0,0.8c0.1,0.3,0.5,0.7,0.9,1c0,0,4.1,4,4.6,4.6c2.3,2.6,3.3,5.2,3.4,8.8
			c0.1,2.3-0.4,4.3-1.5,6.7c-1.9,4.2-6,8.9-12.3,14l0.9-0.3c0.6-0.4,1.4-0.9,3.3-2c4.4-2.4,9.3-4.6,15.3-6.9
			c8.7-3.3,23-7.1,31.1-8.3l0.8-0.1l-0.1-0.2c-0.7-1.2-1.3-1.9-1.9-2.6c-1.8-2.2-3.9-4-6.6-5.5c-3.6-2-8.3-3.6-14.3-4.8
			c-1.1-0.2-3.6-0.6-5.6-1c-4.2-0.7-7-1.1-10-1.6c-1.1-0.2-2.7-0.5-3.8-0.7c-0.6-0.1-1.6-0.4-2.5-0.7
			C-299.9,152.8-300.9,152.6-301.1,151.8L-301.1,151.8z M-298.7,154.1c0,0,0.2,0,0.4,0.1c0.4,0.1,0.8,0.3,1.3,0.4
			c0.4,0.1,0.8,0.2,1.2,0.3c0.6,0.1,1,0.3,1,0.3c0.1,0.1,1,3.1,1.3,4.2c0.1,0.4,0.2,0.8,0.2,0.8c0,0-0.1-0.1-0.2-0.4
			c-1.1-1.9-2.8-3.9-4.8-5.4C-298.5,154.3-298.7,154.1-298.7,154.1L-298.7,154.1z M-294.1,155.4c0,0,0.3,0,0.5,0.1
			c1.6,0.4,4.4,0.9,6.2,1.2c0.3,0,0.5,0.1,0.5,0.1c0,0-0.1,0.1-0.3,0.2c-0.3,0.2-1.5,0.9-1.9,1.2c-1,0.7-2,1.4-2.6,2.1
			c-0.3,0.3-0.5,0.5-0.5,0.5s-0.1-0.2-0.1-0.4c-0.3-1.3-1-3.2-1.7-4.5C-294.1,155.6-294.1,155.4-294.1,155.4
			C-294.1,155.4-294.1,155.4-294.1,155.4L-294.1,155.4z M-286.1,156.9c0.1,0,0.1,0.3,0.3,1c0.3,1.3,0.5,2.8,0.4,4.2
			c0,0.4,0,0.8-0.1,0.8l0,0.1l-0.5-0.2c-1-0.3-2.6-0.8-4-1.2c-0.8-0.2-1.4-0.4-1.4-0.4c0-0.1,1.2-1.2,1.6-1.6
			C-288.7,158.8-286.2,156.9-286.1,156.9L-286.1,156.9z M-285.5,157c0,0,3.8,0.6,5.6,1c1.3,0.3,3.2,0.6,3.3,0.7
			c0.1,0-0.1,0.1-0.8,0.4c-2.4,1.1-4.3,2.1-6.1,3.3c-0.5,0.3-0.9,0.6-0.9,0.6s0-0.3,0-0.6c0-1.8-0.4-3.5-1-5
			C-285.4,157.2-285.5,157-285.5,157z M-275.6,159c0,0-0.1,0.8-0.2,1.2c-0.3,1.4-1.2,3.4-2.3,5.4c-0.2,0.3-0.4,0.6-0.4,0.6
			c0,0-0.3-0.1-0.6-0.3c-1.1-0.6-2.3-1.2-3.6-1.8c-0.4-0.2-0.7-0.3-0.7-0.3c-0.1-0.1,2.9-2,4.5-3C-277.7,160-275.6,158.9-275.6,159
			L-275.6,159z M-274.9,159.1c0.1,0,1.8,0.5,2.7,0.7c2.2,0.6,4.7,1.6,6.3,2.3l0.7,0.3l-0.5,0.1c-4,0.9-7.4,2-10.7,3.3
			c-0.3,0.1-0.5,0.2-0.5,0.2c0,0,0.1-0.2,0.2-0.5c1-2.1,1.6-4.3,1.8-6.2C-275,159.2-274.9,159.1-274.9,159.1L-274.9,159.1z
			 M-291.7,162.9c0,0,1.3,0.3,2,0.5c1.1,0.3,3.3,1,3.3,1.1c0,0-0.3,0.2-0.5,0.5c-1.2,1-2.4,2.1-3.8,3.4c-0.4,0.4-0.8,0.7-0.8,0.7
			c0,0,0-0.1,0-0.1c0.2-1.6,0.2-3.6-0.1-5.6C-291.7,163.2-291.7,162.9-291.7,162.9z M-264.6,163c0,0-0.6,1-1,1.5
			c-0.6,0.8-1.4,1.9-3.2,4.2c-1,1.2-2.1,2.6-2.4,3.1c-0.4,0.5-0.7,0.9-0.7,0.9c0,0-0.1-0.2-0.3-0.4c-1-1.6-2.3-2.9-3.8-4.1
			c-0.3-0.2-0.6-0.5-0.7-0.6c-0.1-0.1-0.2-0.1-0.2-0.2c0,0,1.6-0.7,2.8-1.2c2.1-0.9,5-1.9,7.1-2.5
			C-265.8,163.3-264.6,162.9-264.6,163L-264.6,163z M-263.9,163.1c0,0,0.3,0.1,0.5,0.3c2.3,1.3,4.5,3,6.2,4.7
			c0.5,0.5,1.7,1.7,1.7,1.8c0,0-0.4,0-0.9,0.1c-3.9,0.3-8.9,1.1-13.7,2.3c-0.3,0.1-0.6,0.1-0.6,0.1c0,0,0.3-0.4,0.8-0.8
			c2.8-2.7,4.1-4.4,5.6-7.5C-264.1,163.6-263.9,163.2-263.9,163.1C-263.9,163.1-263.9,163.1-263.9,163.1L-263.9,163.1z
			 M-284.6,165.3c0.1,0,1.3,0.6,2.2,1c0.8,0.4,2.1,1.1,2.2,1.1c0,0-0.4,0.2-1,0.5c-1.7,0.9-3.2,1.7-4.8,2.6
			c-0.4,0.3-0.8,0.5-0.8,0.5c0,0,0,0,0.2-0.5c0.8-1.5,1.5-3.3,1.9-5.1C-284.6,165.3-284.6,165.3-284.6,165.3L-284.6,165.3z
			 M-285.8,165.5c0,0-0.3,1.2-0.5,1.8c-0.4,1.2-1,2.7-1.6,3.8c-0.1,0.3-0.4,0.6-0.5,0.9l-0.2,0.4l-0.5-0.5c-0.6-0.6-1.1-0.9-1.7-1.3
			c-0.3-0.1-0.4-0.2-0.4-0.3c0-0.1,1.6-1.5,2.8-2.6C-287.6,166.9-285.8,165.4-285.8,165.5L-285.8,165.5z M-278.4,168.5l0.5,0.3
			c1,0.7,2.3,1.6,3.2,2.4c0.5,0.4,1.5,1.4,1.8,1.6l0.1,0.1l-0.8,0.2c-4.2,1.2-7.5,2.2-11.4,3.6c-0.4,0.2-0.8,0.3-0.8,0.3
			c-0.1,0-0.1,0,0.9-0.8c2.4-2.3,4.6-4.7,6.2-7.2L-278.4,168.5L-278.4,168.5z M-280.3,169c0,0-1.3,1.8-2,2.8
			c-0.9,1.2-2.5,3.2-3.6,4.5c-0.5,0.5-0.9,1-0.9,1c0,0,0-0.1,0-0.3c0-1.1-0.3-2.3-0.8-3.3c-0.2-0.4-0.3-0.5-0.2-0.6
			c0.2-0.2,2.9-1.7,4.6-2.6C-282.2,169.9-280.4,169-280.3,169L-280.3,169z M-292.1,171.9c0,0,0.2,0.1,0.5,0.2
			c0.6,0.3,1.1,0.7,1.6,1.1c0,0-0.2,0.2-0.5,0.4c-0.9,0.6-2.2,1.6-3,2.3c-0.8,0.6-0.8,0.7-0.8,0.5c0.6-0.9,0.9-1.5,1.2-2.1
			c0.3-0.6,0.6-1.3,0.8-1.9C-292.2,172.1-292.1,171.9-292.1,171.9L-292.1,171.9z M-288.9,174.3c0,0,0.1,0.1,0.4,0.4
			c0.5,0.8,0.9,1.8,1,2.7l0,0.2l-1.3,0.5c-2.3,0.9-4.4,1.8-5.8,2.4c-0.4,0.2-1.1,0.5-1.5,0.7c-0.5,0.2-0.8,0.4-0.8,0.4
			c0,0,0.3-0.2,0.6-0.5c2.8-2,5.2-4.2,7-6.4C-289.1,174.5-289,174.3-288.9,174.3L-288.9,174.3L-288.9,174.3z M-290.4,174.7
			c0,0-1,1.2-1.7,2c-1.8,1.8-3.6,3.3-5.8,4.6c-0.3,0.2-0.5,0.3-0.6,0.4c-0.1,0,0-0.1,1-1.1c0.6-0.7,1.1-1.2,1.6-1.9
			c0.4-0.5,0.4-0.5,0.9-0.9C-293.5,176.8-290.4,174.6-290.4,174.7z"/>
	</g>
	<path class="st4" d="M11.4,38.5c-0.1,0-0.2,0-0.3,0c-2,0.1-3.3,1-4.1,2.7c-0.7,1.5-0.6,3.5,0,5.1c0.7,1.5,1.8,2.3,3.7,2.6
		c0.4,0.1,0.7,0.3,1.4,1.2l0.9,1.1h1.7L13.7,50c-0.6-0.6-1.1-1.2-1.1-1.2c0,0,0.2-0.2,0.5-0.2c1-0.3,1.8-1,2.3-2.2
		c0.5-0.9,0.5-1.2,0.6-2.3C16.1,40.6,14.3,38.5,11.4,38.5L11.4,38.5L11.4,38.5z M12.9,47.4c-0.8,0.4-2,0.5-2.8,0.2
		c-0.8-0.3-1.6-1.2-2-2.1c-0.4-1.1-0.3-3,0.1-3.9c0.7-1.4,1.7-2,3.1-2c2.1,0,3.3,1.3,3.4,3.7C14.8,45.3,14.2,46.8,12.9,47.4
		L12.9,47.4z M42.5,41.4c-0.7,0-1.3,0.3-1.6,0.9l-0.3,0.5v-1.2h-1.2v7.1h1.2v-2.3c0-2.1,0-2.3,0.3-2.9c0.4-0.8,1.1-1.2,1.7-1
		l0.4,0.1v-1.2L42.5,41.4L42.5,41.4L42.5,41.4z M35.2,41.3c-0.2,0-0.5,0-0.8,0.1c-1.7,0.4-2.6,2-2.5,3.7c0,1.4,0.3,2.1,0.9,2.8
		c1.4,1.1,2.6,1.2,4.2,0.6c0.3-0.1,0.6-0.3,0.6-0.3v-1.1l-0.6,0.3c-1.3,0.6-2.4,0.6-3.2-0.1c-0.5-0.5-0.7-1.2-0.8-1.9h5v-1
		C38.1,42.5,36.9,41.3,35.2,41.3L35.2,41.3L35.2,41.3z M33.2,44.5c0,0,0.2-1.2,0.9-1.7c0.3-0.2,0.7-0.3,1.1-0.3
		c0.4,0,0.7,0.1,1.1,0.4c0.6,0.5,0.7,1.7,0.7,1.7L33.2,44.5L33.2,44.5L33.2,44.5L33.2,44.5z M3.1,43.2c-1.4-0.8-2-1.4-1.9-2.1
		c0.2-1.9,2.6-1.7,3.9-0.9l0-1.3c0,0-0.7-0.3-1.8-0.3c-1.6,0-2.6,0.5-3.1,1.6c-0.7,1.6-0.1,2.8,2.2,4.1c1.3,0.7,1.8,1.4,1.8,2.1
		c0,1.5-1.8,2-3.6,1.1C0.4,47.1,0.1,47,0,47c-0.1,0.4,0,1.4,0,1.4s0.6,0.2,1.4,0.4c2.1,0.4,4-0.6,4.1-2.1
		C5.7,45.2,5.2,44.4,3.1,43.2L3.1,43.2L3.1,43.2z M53.6,41.3c-0.2,0-0.5,0-0.8,0.1c-1.7,0.4-2.6,2-2.5,3.7c0,1.4,0.3,2.1,0.9,2.8
		c1.4,1.1,2.6,1.2,4.3,0.6c0.3-0.1,0.6-0.3,0.6-0.3v-1.1l-0.6,0.3c-1.3,0.6-2.4,0.6-3.2-0.1c-0.5-0.5-0.7-1.1-0.9-1.9h5v-1
		C56.4,42.5,55.3,41.3,53.6,41.3L53.6,41.3L53.6,41.3z M51.5,44.4c0,0,0.2-1.2,0.9-1.7c0.3-0.2,0.7-0.3,1.1-0.3
		c0.4,0,0.7,0.1,1.1,0.4c0.6,0.5,0.7,1.7,0.7,1.7L51.5,44.4L51.5,44.4L51.5,44.4z M28.7,43.2c-1.4-0.8-1.9-1.4-1.9-2.1
		c0.2-1.9,2.6-1.7,3.9-0.9l0-1.3c0,0-0.7-0.3-1.8-0.3c-1.6,0-2.6,0.5-3.1,1.6c-0.7,1.6-0.1,2.8,2.2,4.1c1.3,0.7,1.8,1.4,1.8,2.1
		c0,1.5-1.8,2-3.6,1.1c-0.4-0.2-0.7-0.3-0.7-0.3c-0.1,0.4,0,1.4,0,1.4s0.6,0.2,1.4,0.4c2.1,0.4,4-0.6,4.1-2.1
		C31.2,45.2,30.7,44.4,28.7,43.2L28.7,43.2L28.7,43.2z M60.9,41.4c-0.7,0-1.3,0.3-1.6,0.9l-0.3,0.5v-1.2h-1.2v7.1h1.2v-2.3
		c0-2.1,0-2.3,0.3-2.9c0.4-0.8,1.1-1.2,1.7-1l0.4,0.1v-1.2L60.9,41.4L60.9,41.4z M18.8,43.2v-4.5h-1.3v10h5.3v-1.2h-4L18.8,43.2
		L18.8,43.2z M47.8,44.6l-1,2.7l-1-2.7l-1-3h-1.3c0.8,2.4,1.7,4.8,2.7,7.1c0.4,0,0.8,0,1.2,0l1.4-3.5l1.4-3.6h-1.2
		C48.9,41.5,48.4,43,47.8,44.6L47.8,44.6L47.8,44.6z M21.7,35.9c0.2,0,0.4-0.1,0.5-0.2c0.1-0.1,0.2-0.3,0.2-0.5
		c0-0.2-0.1-0.4-0.2-0.5c-0.1-0.1-0.3-0.2-0.5-0.2c-0.2,0-0.4,0.1-0.5,0.2C21,34.8,21,35,21,35.2c0,0.2,0.1,0.4,0.2,0.5
		C21.3,35.8,21.5,35.9,21.7,35.9L21.7,35.9L21.7,35.9z M21.2,34.8c0.1-0.1,0.3-0.2,0.5-0.2c0.2,0,0.3,0.1,0.4,0.2
		c0.1,0.1,0.2,0.3,0.2,0.4c0,0.2-0.1,0.3-0.2,0.5c-0.1,0.1-0.3,0.2-0.4,0.2c-0.2,0-0.3-0.1-0.4-0.2c-0.1-0.1-0.2-0.3-0.2-0.5
		C21,35,21.1,34.9,21.2,34.8z M21.5,35.3L21.5,35.3c0.1,0,0.2,0.1,0.2,0.2l0.1,0.2H22l-0.1-0.2c0-0.1-0.1-0.2-0.2-0.2
		c0.1,0,0.1,0,0.2-0.1c0,0,0.1-0.1,0.1-0.2c0-0.1,0-0.1-0.1-0.2c-0.1,0-0.1-0.1-0.3-0.1h-0.3v0.9h0.1L21.5,35.3L21.5,35.3L21.5,35.3
		z M21.5,34.8h0.1c0.1,0,0.1,0,0.2,0c0,0,0,0.1,0,0.1c0,0.1-0.1,0.2-0.2,0.2h-0.1L21.5,34.8L21.5,34.8L21.5,34.8z M0.8,35.2
		c0-0.3,0-0.6,0-0.7h0c0,0.2,0.1,0.3,0.1,0.4l1.2,2.7h0.2l1.2-2.7c0-0.1,0.1-0.2,0.1-0.3h0c0,0.3,0,0.5,0,0.7v2.4H4V34H3.5l-1.1,2.5
		c0,0.1-0.1,0.2-0.2,0.4h0c0-0.1-0.1-0.2-0.2-0.4L0.9,34H0.4v3.5h0.4L0.8,35.2L0.8,35.2L0.8,35.2z M4.9,35.2h0.4v2.2H4.9V35.2z
		 M5.1,34.4c0.1,0,0.1,0,0.2-0.1c0,0,0.1-0.1,0.1-0.2c0-0.1,0-0.1-0.1-0.2c-0.1,0-0.1-0.1-0.2-0.1c-0.1,0-0.1,0-0.2,0.1
		c0,0-0.1,0.1-0.1,0.2c0,0.1,0,0.1,0.1,0.2C4.9,34.4,5,34.4,5.1,34.4L5.1,34.4L5.1,34.4z M7.8,37.4v-0.4c-0.2,0.1-0.4,0.2-0.6,0.2
		c-0.3,0-0.5-0.1-0.6-0.3c-0.2-0.2-0.2-0.4-0.2-0.7c0-0.3,0.1-0.5,0.3-0.7c0.2-0.2,0.4-0.3,0.6-0.3c0.2,0,0.4,0.1,0.6,0.2v-0.4
		C7.6,35,7.4,35,7.2,35c-0.4,0-0.7,0.1-1,0.4c-0.2,0.3-0.4,0.6-0.4,1c0,0.4,0.1,0.7,0.3,0.9c0.2,0.2,0.5,0.4,0.9,0.4
		C7.4,37.6,7.6,37.6,7.8,37.4L7.8,37.4z M8.8,36.3c0-0.3,0.1-0.5,0.2-0.7c0.1-0.1,0.3-0.2,0.4-0.2c0.1,0,0.2,0,0.3,0.1V35
		c-0.1,0-0.1,0-0.2,0c-0.1,0-0.3,0-0.4,0.1c-0.1,0.1-0.2,0.2-0.3,0.4h0V35H8.4v2.5h0.4L8.8,36.3L8.8,36.3z M11.1,37.6
		c0.4,0,0.7-0.1,0.9-0.4c0.2-0.2,0.3-0.6,0.3-1c0-0.4-0.1-0.7-0.3-1c-0.2-0.2-0.5-0.3-0.9-0.3c-0.4,0-0.7,0.1-0.9,0.3
		c-0.2,0.2-0.4,0.6-0.4,1c0,0.4,0.1,0.7,0.3,0.9C10.4,37.5,10.7,37.6,11.1,37.6L11.1,37.6L11.1,37.6z M10.5,35.6
		c0.2-0.2,0.4-0.2,0.6-0.2c0.3,0,0.5,0.1,0.6,0.2c0.1,0.2,0.2,0.4,0.2,0.7c0,0.3-0.1,0.6-0.2,0.7c-0.1,0.2-0.3,0.3-0.6,0.3
		c-0.3,0-0.5-0.1-0.6-0.3c-0.2-0.2-0.2-0.4-0.2-0.7C10.3,36,10.4,35.7,10.5,35.6L10.5,35.6z M14.1,37.4c0.2-0.1,0.2-0.3,0.2-0.5
		c0-0.2-0.1-0.3-0.2-0.5c-0.1-0.1-0.3-0.2-0.5-0.3c-0.2-0.1-0.3-0.2-0.4-0.2c-0.1-0.1-0.1-0.1-0.1-0.3c0-0.1,0-0.2,0.1-0.3
		c0.1-0.1,0.2-0.1,0.3-0.1c0.2,0,0.4,0.1,0.6,0.2v-0.4C14.1,35,13.9,35,13.7,35c-0.3,0-0.5,0.1-0.6,0.2c-0.2,0.1-0.3,0.3-0.3,0.5
		c0,0.2,0.1,0.3,0.2,0.5c0.1,0.1,0.2,0.2,0.5,0.3c0.2,0.1,0.3,0.2,0.4,0.2c0.1,0.1,0.1,0.1,0.1,0.2c0,0.2-0.2,0.4-0.5,0.4
		c-0.2,0-0.5-0.1-0.7-0.2v0.4c0.2,0.1,0.4,0.2,0.6,0.2C13.7,37.6,14,37.5,14.1,37.4L14.1,37.4L14.1,37.4z M16.1,35
		c-0.4,0-0.7,0.1-0.9,0.3c-0.2,0.2-0.4,0.6-0.4,1c0,0.4,0.1,0.7,0.3,0.9c0.2,0.2,0.5,0.4,0.9,0.4c0.4,0,0.7-0.1,0.9-0.4
		c0.2-0.2,0.3-0.6,0.3-1c0-0.4-0.1-0.7-0.3-1C16.7,35.1,16.4,35,16.1,35L16.1,35L16.1,35z M16.9,36.3c0,0.3-0.1,0.6-0.2,0.7
		c-0.1,0.2-0.3,0.3-0.6,0.3c-0.3,0-0.5-0.1-0.6-0.3c-0.2-0.2-0.2-0.4-0.2-0.7c0-0.3,0.1-0.6,0.2-0.7c0.2-0.2,0.4-0.2,0.6-0.2
		c0.3,0,0.5,0.1,0.6,0.2C16.8,35.7,16.9,36,16.9,36.3L16.9,36.3L16.9,36.3z M17.9,37.6h0.4v-2.2h0.6V35h-0.6v-0.4
		c0-0.4,0.1-0.5,0.4-0.5c0.1,0,0.2,0,0.3,0.1v-0.4c-0.1,0-0.2,0-0.3,0c-0.2,0-0.4,0.1-0.5,0.2c-0.2,0.2-0.3,0.4-0.3,0.7V35h-0.4v0.3
		h0.4L17.9,37.6L17.9,37.6z M19.6,36.9c0,0.5,0.2,0.7,0.7,0.7c0.2,0,0.3,0,0.4-0.1v-0.3c-0.1,0.1-0.2,0.1-0.3,0.1
		c-0.1,0-0.2,0-0.3-0.1C20,37.1,20,37,20,36.8v-1.4h0.6V35H20v-0.7c-0.1,0-0.3,0.1-0.4,0.1V35h-0.4v0.3h0.4L19.6,36.9L19.6,36.9z
		 M63,41.5c-0.1-0.1-0.3-0.2-0.5-0.2c-0.2,0-0.4,0.1-0.5,0.2c-0.1,0.1-0.2,0.3-0.2,0.5c0,0.2,0.1,0.4,0.2,0.5
		c0.1,0.1,0.3,0.2,0.5,0.2c0.2,0,0.4-0.1,0.5-0.2c0.1-0.1,0.2-0.3,0.2-0.5C63.2,41.8,63.2,41.7,63,41.5L63,41.5z M63,42.5
		c-0.1,0.1-0.3,0.2-0.4,0.2c-0.2,0-0.3-0.1-0.4-0.2c-0.1-0.1-0.2-0.3-0.2-0.5c0-0.2,0.1-0.3,0.2-0.4c0.1-0.1,0.3-0.2,0.5-0.2
		c0.2,0,0.3,0.1,0.4,0.2c0.1,0.1,0.2,0.3,0.2,0.4C63.2,42.2,63.1,42.4,63,42.5z M62.6,42.1c0.1,0,0.1,0,0.2-0.1c0,0,0.1-0.1,0.1-0.2
		c0-0.1,0-0.1-0.1-0.2c-0.1,0-0.1-0.1-0.3-0.1h-0.3v0.9h0.1v-0.4h0.1c0.1,0,0.1,0.1,0.2,0.2l0.1,0.2h0.2l-0.1-0.2
		C62.7,42.1,62.7,42.1,62.6,42.1L62.6,42.1L62.6,42.1z M62.5,42h-0.1v-0.3h0.1c0.1,0,0.1,0,0.2,0c0,0,0,0.1,0,0.1
		C62.7,41.9,62.6,42,62.5,42L62.5,42L62.5,42z M39.9,34.9h0.1V34h0.3v-0.1h-0.7V34h0.3L39.9,34.9L39.9,34.9z M40.6,34.2
		c0-0.1,0-0.2,0-0.2C40.6,34.1,40.6,34.1,40.6,34.2l0.4,0.7h0.1l0.3-0.8c0,0,0-0.1,0-0.1c0,0.1,0,0.1,0,0.2v0.7h0.1v-1h-0.1
		l-0.3,0.7c0,0,0,0.1,0,0.1h0c0,0,0-0.1,0-0.1l-0.3-0.7h-0.2v1h0.1L40.6,34.2L40.6,34.2L40.6,34.2z"/>
</g>
</svg>
