<?xml version="1.0" encoding="utf-8"?>
<!-- Generator: Adobe Illustrator 22.0.1, SVG Export Plug-In . SVG Version: 6.00 Build 0)  -->
<svg version="1.1" id="design" xmlns="http://www.w3.org/2000/svg" xmlns:xlink="http://www.w3.org/1999/xlink" x="0px" y="0px"
	 viewBox="0 0 410.7 51.5" style="enable-background:new 0 0 410.7 51.5;" xml:space="preserve">
<style type="text/css">
	.st0{fill:#0089D6;}
	.st1{fill:url(#SVGID_1_);}
	.st2{fill:url(#SVGID_2_);}
	.st3{fill:url(#SVGID_3_);}
	.st4{fill:#231F1F;}
	.st5{fill-rule:evenodd;clip-rule:evenodd;fill:#00678F;}
	.st6{fill-rule:evenodd;clip-rule:evenodd;fill:#E38D1A;}
	.st7{fill:#ED1C24;}
	.st8{fill:#336791;}
	.st9{fill:#FFFFFF;}
</style>
<g>
	<path class="st7" d="M170.9,33.5h26.2l-13.8-22.3l-25.4,40.3l-11.6,0l30.9-48.3c1.3-2,3.6-3.1,6-3.1c2.4,0,4.7,1.1,6,3.1l31,48.4
		l-11.6,0l-5.4-9h-26.5L170.9,33.5L170.9,33.5z M290.9,42.5v-42h-9.8v46.1c0,1.3,0.5,2.5,1.4,3.4c1,1,2.2,1.5,3.6,1.5h44.7l5.8-9
		H290.9L290.9,42.5z M128.7,35c9.5,0,17.2-7.7,17.2-17.2c0-9.5-7.7-17.2-17.2-17.2H85.8v51h9.8v-42h32.4c4.6,0,8.2,3.7,8.2,8.3
		c0,4.6-3.7,8.3-8.2,8.3l-27.6,0l29.3,25.5h14.2L124.3,35L128.7,35L128.7,35z M25.5,51.5C11.4,51.5,0,40.1,0,26
		C0,11.9,11.4,0.5,25.5,0.5h29.6c14.1,0,25.5,11.4,25.5,25.5c0,14.1-11.4,25.5-25.5,25.5L25.5,51.5L25.5,51.5z M54.5,42.5
		C63.6,42.5,71,35.1,71,26c0-9.1-7.4-16.5-16.5-16.5l-28.3,0C17,9.5,9.6,16.9,9.6,26c0,9.1,7.4,16.5,16.5,16.5H54.5L54.5,42.5z
		 M240.7,51.5c-14.1,0-25.5-11.4-25.5-25.5c0-14.1,11.4-25.5,25.5-25.5h35.2l-5.8,9l-28.8,0c-9.1,0-16.5,7.4-16.5,16.5
		c0,9.1,7.4,16.5,16.5,16.5h35.3l-5.8,9H240.7L240.7,51.5z M360.6,42.5c-7.5,0-13.9-5.1-15.9-12h41.9l5.8-9l-47.7,0
		c2-6.9,8.3-12,15.9-12l28.8,0l5.8-9h-35.2c-14.1,0-25.5,11.4-25.5,25.5c0,14.1,11.4,25.5,25.5,25.5h30.3l5.8-9H360.6L360.6,42.5z"
		/>
	<path class="st7" d="M400.4,5.9c0-2.5,2-4.5,4.5-4.5c2.5,0,4.5,2,4.5,4.5c0,2.5-2,4.5-4.5,4.5C402.4,10.4,400.4,8.4,400.4,5.9
		L400.4,5.9z M404.9,11.7c3.2,0,5.7-2.6,5.7-5.7c0-3.2-2.6-5.7-5.7-5.7c-3.2,0-5.7,2.6-5.7,5.7C399.2,9.1,401.7,11.7,404.9,11.7
		L404.9,11.7z M404.3,2.5c0.9,0,1.2,0,1.7,0.2c1.1,0.4,1.2,1.4,1.2,1.8c0,0.1,0,0.3-0.1,0.5c-0.1,0.2-0.2,0.7-0.8,1.1
		c-0.1,0-0.1,0.1-0.3,0.1l1.5,2.7h-1.4l-1.3-2.5H404V9h-1.3V2.5H404.3L404.3,2.5z M404.8,5.5c0.4,0,0.8,0,1.1-0.4
		c0.1-0.2,0.1-0.3,0.1-0.6c0-0.3-0.2-0.6-0.5-0.8c-0.3-0.1-0.6-0.1-1.2-0.1H404v1.8H404.8L404.8,5.5z"/>
</g>
</svg>
