<?xml version="1.0" encoding="utf-8"?>
<!-- Generator: Adobe Illustrator 22.0.1, SVG Export Plug-In . SVG Version: 6.00 Build 0)  -->
<svg version="1.1" id="Layer_1" xmlns="http://www.w3.org/2000/svg" xmlns:xlink="http://www.w3.org/1999/xlink" x="0px" y="0px"
	 viewBox="0 0 221.1 170" style="enable-background:new 0 0 221.1 170;" xml:space="preserve">
<style type="text/css">
	.st0{fill:#B0B1B5;}
	.st1{fill:#1F65B8;}
</style>
<path class="st0" d="M110.5,0C49.5,0,0,33.2,0,74.3s49.5,74.3,110.5,74.3s110.5-33.2,110.5-74.3S171.6,0,110.5,0z M125.5,130.4
	c-45.1,0-81.7-22.6-81.7-50.5s36.6-50.5,81.7-50.5s81.7,13.6,81.7,50.5S170.7,130.4,125.5,130.4z"/>
<path class="st1" d="M186.4,125.8c-2.3-4.2-10.9-9.4-17.6-10.4c20.9-5.6,32.1-15.1,32.1-37.7s-23.5-30.7-35.7-30.7
	c-12.2,0-74.1,0-74.1,0V170h37.1v-48.2c0,0,7.3,0,10.6,0c5.8,0,7.8,4.1,31.1,48.2c3,0,42,0,42,0S188.7,130,186.4,125.8z M152.8,93.7
	c-5.2,0-24.4,0-24.4,0V83.5V73.4c0,0,19.2,0,24.4,0c5.2,0,9.3,4.2,9.3,10.1S158,93.7,152.8,93.7z"/>
</svg>
