<svg xmlns="http://www.w3.org/2000/svg" xmlns:xlink="http://www.w3.org/1999/xlink" viewBox="0 0 223.58 119.44"><defs><style>.cls-1{fill:none;}.cls-2{clip-path:url(#clip-path);}.cls-3{fill:url(#linear-gradient);}.cls-4{clip-path:url(#clip-path-2);}.cls-5{fill:url(#linear-gradient-2);}.cls-6{fill:#425066;}</style><clipPath id="clip-path"><polygon class="cls-1" points="140.75 16.02 113.02 0.25 113.02 65.05 124.11 58.65 124.11 40.41 132.49 45.22 132.37 32.77 124.11 27.97 124.11 20.7 140.75 30.43 140.75 16.02"/></clipPath><linearGradient id="linear-gradient" x1="80.25" y1="-150.38" x2="148.26" y2="-150.38" gradientTransform="matrix(1, 0, 0, -1, 0, -117.79)" gradientUnits="userSpaceOnUse"><stop offset="0" stop-color="#ff6f00"/><stop offset="1" stop-color="#ffa800"/></linearGradient><clipPath id="clip-path-2"><polygon class="cls-1" points="82.84 16.02 110.56 0.25 110.56 65.05 99.47 58.65 99.47 20.7 82.84 30.43 82.84 16.02"/></clipPath><linearGradient id="linear-gradient-2" x1="79.88" y1="-150.38" x2="147.89" y2="-150.38" xlink:href="#linear-gradient"/></defs><title>tensorflow-logo-vertical</title><g id="Layer_2" data-name="Layer 2"><g id="Layer_1-2" data-name="Layer 1"><g class="cls-2"><path class="cls-3" d="M80.25,0h68V65.18h-68Z"/></g><g class="cls-4"><path class="cls-5" d="M79.88,0h68V65.18h-68Z"/></g><path class="cls-6" d="M25.72,91.09h-10v27.83H10V91.09H0V86.57H25.72Z"/><path class="cls-6" d="M32.46,119.33a11.36,11.36,0,0,1-8.34-3.22,11.76,11.76,0,0,1-3.22-8.64v-.7a14.29,14.29,0,0,1,1.41-6.43,11.09,11.09,0,0,1,3.92-4.42,10.18,10.18,0,0,1,5.63-1.61c3.32,0,5.83,1,7.64,3.12s2.71,5,2.71,8.84v2.21H26.43a7.46,7.46,0,0,0,2,4.72,5.61,5.61,0,0,0,4.42,1.71,7.16,7.16,0,0,0,6-3l2.91,2.81A10.07,10.07,0,0,1,38,118,10,10,0,0,1,32.46,119.33Zm-.6-20.6a4.45,4.45,0,0,0-3.62,1.51,7.46,7.46,0,0,0-1.71,4.32H36.88v-.4A6.7,6.7,0,0,0,35.47,100,5.35,5.35,0,0,0,31.85,98.73Zm19.49-3.92.2,2.81a8.67,8.67,0,0,1,7-3.22c5,0,7.54,2.91,7.64,8.64v15.88H60.79V103.35a5,5,0,0,0-1-3.42,4.28,4.28,0,0,0-3.22-1.11,5.26,5.26,0,0,0-4.92,2.91v17.08H46.22V94.71Zm32.36,17.59a2.52,2.52,0,0,0-1.21-2.21,11.28,11.28,0,0,0-3.92-1.31A19.14,19.14,0,0,1,74,107.37c-2.71-1.31-4-3.22-4-5.63a6.67,6.67,0,0,1,2.61-5.23,10.28,10.28,0,0,1,6.63-2.11,10.58,10.58,0,0,1,6.93,2.11A6.67,6.67,0,0,1,88.73,102H83.3a3.38,3.38,0,0,0-1.21-2.61,4.32,4.32,0,0,0-3.12-1,5.12,5.12,0,0,0-2.91.8A2.67,2.67,0,0,0,75,101.44a2.29,2.29,0,0,0,1,1.91,14.17,14.17,0,0,0,4.22,1.41,18.57,18.57,0,0,1,5,1.71,6.7,6.7,0,0,1,2.71,2.31,6.44,6.44,0,0,1-1.81,8.54,13.14,13.14,0,0,1-12.26.9,8.5,8.5,0,0,1-3.62-2.91,7.36,7.36,0,0,1-1.31-4h5.23a3.71,3.71,0,0,0,1.41,2.91,5.54,5.54,0,0,0,3.52,1,5.6,5.6,0,0,0,3.22-.8,2.09,2.09,0,0,0,1.41-2Zm8.14-5.73a13.59,13.59,0,0,1,1.41-6.33A10.2,10.2,0,0,1,97.17,96,11,11,0,0,1,103,94.51a10.52,10.52,0,0,1,7.94,3.12,12.58,12.58,0,0,1,3.32,8.34v1.31a13.88,13.88,0,0,1-1.41,6.33,9.6,9.6,0,0,1-3.92,4.32,11.1,11.1,0,0,1-5.93,1.51A10.2,10.2,0,0,1,94.86,116c-2-2.21-3-5.23-3.12-9Zm5.33.5A9.81,9.81,0,0,0,98.68,113a5.41,5.41,0,0,0,7.54,1,4.76,4.76,0,0,0,1-1,10.76,10.76,0,0,0,1.51-6.23,9.53,9.53,0,0,0-1.61-5.83,5.38,5.38,0,0,0-7.44-1.11,11,11,0,0,0-1.11,1A12.83,12.83,0,0,0,97.17,107.17Zm33.26-7.34a16.43,16.43,0,0,0-2.21-.2c-2.51,0-4.12.9-5,2.81v16.48h-5.43V94.81h5.12l.1,2.71a6,6,0,0,1,5.43-3.12,6.31,6.31,0,0,1,1.91.3l.1,5.12ZM153,105.16H140v13.77h-5.63V86.57H155v4.52H140v9.65H153Zm10.75,13.77h-5.43V86.47h5.43Zm3.92-12.26a13.59,13.59,0,0,1,1.41-6.33A10.2,10.2,0,0,1,173,96a11,11,0,0,1,5.83-1.51,10.52,10.52,0,0,1,7.94,3.12,12.58,12.58,0,0,1,3.32,8.34v1.31a15.21,15.21,0,0,1-1.31,6.33,9.6,9.6,0,0,1-3.92,4.32,11.1,11.1,0,0,1-5.93,1.51,10.2,10.2,0,0,1-8.14-3.42,13,13,0,0,1-3.12-9v-.3Zm5.43.5a9.81,9.81,0,0,0,1.51,5.83,5,5,0,0,0,4.32,2.11,4.67,4.67,0,0,0,4.22-2.11,10.76,10.76,0,0,0,1.51-6.23,9.53,9.53,0,0,0-1.61-5.83,5.38,5.38,0,0,0-7.44-1.11,11,11,0,0,0-1.11,1A11.81,11.81,0,0,0,173.14,107.17Zm41.4,4.32,3.82-16.58h5.23L217.05,119h-4.42l-5.12-16.58L202.38,119H198l-6.63-24.12h5.33l3.92,16.48,4.92-16.48h4.12l4.92,16.58Z"/></g></g></svg>