<?xml version="1.0" encoding="utf-8"?>
<!-- Generator: Adobe Illustrator 22.0.1, SVG Export Plug-In . SVG Version: 6.00 Build 0)  -->
<svg version="1.1"
	 id="svg2" inkscape:version="0.92.3 (2405546, 2018-03-11)" sodipodi:docname="qtio-ar21.svg" xmlns:cc="http://creativecommons.org/ns#" xmlns:dc="http://purl.org/dc/elements/1.1/" xmlns:inkscape="http://www.inkscape.org/namespaces/inkscape" xmlns:rdf="http://www.w3.org/1999/02/22-rdf-syntax-ns#" xmlns:sodipodi="http://sodipodi.sourceforge.net/DTD/sodipodi-0.dtd" xmlns:svg="http://www.w3.org/2000/svg"
	 xmlns="http://www.w3.org/2000/svg" xmlns:xlink="http://www.w3.org/1999/xlink" x="0px" y="0px" viewBox="0 0 231.681 170"
	 enable-background="new 0 0 231.681 170" xml:space="preserve">
<sodipodi:namedview  bordercolor="#666666" borderopacity="1" gridtolerance="10" guidetolerance="10" id="namedview16" inkscape:current-layer="svg2" inkscape:cx="46.921109" inkscape:cy="51.098855" inkscape:pageopacity="0" inkscape:pageshadow="2" inkscape:window-height="1001" inkscape:window-maximized="1" inkscape:window-width="1920" inkscape:window-x="-9" inkscape:window-y="-9" inkscape:zoom="3.150484" objecttolerance="10" pagecolor="#ffffff" showgrid="false" units="px">
	</sodipodi:namedview>
<g id="g819" transform="matrix(0.09244619,0,0,0.09244619,23.64493,32.622858)">
	<path id="path6" inkscape:connector-curvature="0" fill="#41CD52" d="M88.684-352.886h2161.67v1490.603
		c-116.084,116.464-232.549,232.549-349.285,348.308H-255.772V-9.025C-141.424-124.079-26.098-238.265,88.684-352.886z"/>
	<path id="path8" inkscape:connector-curvature="0" fill="#FFFFFF" d="M408.026,34.045c82.073-54.299,183.566-68.023,280.068-67.156
		c91.891,1.139,188.339,17.25,264.499,72.092c55.33,38.894,91.295,98.943,115.271,161.054
		c38.785,101.981,50.177,212.099,51.479,320.48c0.163,109.141-4.774,220.669-40.901,324.657
		c-24.193,70.736-70.247,133.552-131.002,177.165c43.722,70.844,88.311,141.146,132.033,211.99
		c-54.95,25.333-109.738,50.828-164.742,76.052c-46.814-77.245-93.41-154.653-140.387-231.79
		c-63.521,10.415-128.507,9.601-192.353,2.549c-76.486-9.167-154.436-32.493-213.455-83.971
		c-45.349-39.273-73.828-94.224-93.302-150.096c-31.896-94.495-40.467-195.066-41.932-294.226
		c-0.759-107.188,6.075-216.059,38.406-318.907C296.715,156.585,338.104,79.394,408.026,34.045z"/>
	<path id="path10" inkscape:connector-curvature="0" fill="#FFFFFF" d="M1339.741,30.574c57.5-0.054,115-0.054,172.5,0
		c0.163,76.052-0.054,152.049,0.108,228.101c73.502,0.109,147.005,0,220.507,0.054c-1.248,49.363-2.604,98.726-4.014,148.089
		c-73.448,0.163-146.842-0.054-220.29,0.109c0.163,124.655-0.38,249.311,0.271,373.966c1.41,34.12,0.651,70.139,15.677,101.655
		c10.957,24.302,40.467,30.54,64.498,31.354c45.295-0.163,90.535-2.821,135.83-3.634c2.766,45.349,5.424,90.752,8.028,136.101
		c-90.101,15.134-184.651,33.252-274.155,4.936c-37.7-11.175-72.851-36.182-88.148-73.448
		c-27.394-63.413-29.618-133.986-30.811-202.063c-0.108-122.974,0-245.893-0.054-368.867c-40.087-0.109-80.174,0.054-120.262-0.109
		c-0.108-49.309-0.108-98.672,0-148.035c40.087-0.163,80.12,0.054,120.207-0.109C1339.795,182.623,1339.578,106.625,1339.741,30.574
		z"/>
	<path id="path12" inkscape:connector-curvature="0" fill="#41CD52" d="M614.917,122.845c55.818-7.269,114.403-5.316,167.238,15.785
		c42.799,16.924,79.144,50.068,98.346,92.054c29.455,63.63,40.738,133.877,46.434,203.257c6.184,92.325,5.316,185.518-7.432,277.301
		c-8.95,54.625-21.698,112.179-58.693,155.25c-37.538,43.233-95.417,61.785-150.964,66.125c-58.585,4.285-120.37,0-173.259-27.719
		c-30.866-16.436-57.066-42.203-72.363-73.773c-18.552-37.809-28.75-79.089-35.91-120.424
		c-21.59-131.056-26.797-266.669,2.712-396.966c12.151-49.146,29.835-99.594,65.745-136.644
		C528.016,145.356,571.521,128.974,614.917,122.845z"/>
</g>
</svg>
