<?xml version="1.0" encoding="utf-8"?>
<!-- Generator: Adobe Illustrator 24.2.1, SVG Export Plug-In . SVG Version: 6.00 Build 0)  -->
<svg version="1.1" id="Layer_1" xmlns="http://www.w3.org/2000/svg" xmlns:xlink="http://www.w3.org/1999/xlink" x="0px" y="0px"
	 viewBox="0 0 300 257" style="enable-background:new 0 0 300 257;" xml:space="preserve">
<style type="text/css">
	.st0{fill:#2496EC;}
	.st1{fill:#7BBFF3;}
</style>
<g>
	<path class="st0" d="M0,228.1c0.5-0.8,0.4-1.7,0.6-2.6c2.5-11,12.5-19.3,23.8-19.6c6-0.2,11.5,1.4,16.3,5c0.1,0.1,0.2,0.2,0.4,0.3
		c0.3-0.4,0.2-0.8,0.2-1.2c0-6.8,0-13.6,0-20.4c0-0.8,0-1.5,0.2-2.3c0.6-2.1,2.8-3.5,5.1-3.2c2.3,0.3,4.1,2.1,4.1,4.3
		c0.1,1.8,0,3.6,0,5.5c0,12.7,0.1,25.3,0,38c-0.1,11.1-7.5,20.8-18.2,23.9c-1.4,0.4-2.9,0.7-4.4,0.8c-1.8,0-3.7,0-5.5,0
		c-9.7-0.5-19.3-8.5-21.8-18.2c-0.3-1.3-0.6-2.6-0.9-3.9C0,232.4,0,230.2,0,228.1z M41.3,231.4c0-8.7-7.2-16-15.9-16
		c-8.7,0-15.9,7.1-15.9,15.9c0,8.8,7,16,15.9,16C34.2,247.3,41.3,240.2,41.3,231.4z"/>
	<path class="st0" d="M227.7,256.8c-0.8-0.5-1.7-0.4-2.5-0.6c-11.3-2.6-19.4-12.7-19.7-24.3c-0.3-13.4,9.6-22.8,18.9-25.2
		c14.6-3.7,29.1,5.6,31.7,20.5c0.2,1.3,0.3,2.6,0.3,3.9c0,3.1-1.9,5-4.9,5c-10,0-20.1,0-30.1,0c-1.8,0-3.6,0-5.4,0
		c-0.3,0.5,0,0.8,0.1,1.1c3.9,10.2,17.3,13.4,25.4,6.1c1.5-1.4,3.2-2,5.2-1.3c1.8,0.7,2.8,2.1,3,4c0.2,1.6-0.4,3.1-1.6,4.2
		c-3.9,3.6-8.4,5.8-13.7,6.4c-0.3,0-0.5,0-0.7,0.2C231.7,256.8,229.7,256.8,227.7,256.8z M246.2,226.7c-1.1-6.5-9-11.7-16.8-11.1
		c-6.1,0.5-13.3,6.4-13.4,11.1C226,226.7,236,226.7,246.2,226.7z"/>
	<path class="st0" d="M164.4,256.8c-0.2-0.3-0.5-0.2-0.7-0.3c-1.8-0.6-3.1-2.3-3.2-4.3c0-0.9,0-1.8,0-2.7c0-19.9,0-39.8,0-59.7
		c0-0.8-0.1-1.5,0.2-2.3c0.6-2.2,2.9-3.7,5.2-3.4c2.3,0.3,4.1,2.1,4.1,4.5c0.1,5.3,0,10.6,0,16c0,6.5,0,13,0,19.5
		c0.6,0.1,0.9-0.3,1.2-0.5c8.6-5.6,17.1-11.1,25.7-16.7c3.2-2.1,7.1-0.4,7.6,3.4c0.2,1.9-0.5,3.4-2.1,4.5
		c-5.8,3.8-11.7,7.6-17.5,11.3c-0.3,0.2-0.7,0.5-1.2,0.8c0.8,0.9,1.5,1.7,2.2,2.6c5.5,6.2,10.9,12.6,16.6,18.6
		c2.9,3.1,2.4,7.6-2.1,8.9c-0.5,0-1.1,0-1.6,0c-1.3-0.4-2.3-1.2-3.2-2.2c-6.3-7.1-12.5-14.1-18.8-21.2c-0.4-0.5-0.8-1-1.4-1.4
		c-1.5,1-2.9,2-4.5,2.9c-0.7,0.4-1,0.9-1,1.8c0,5,0,10.1,0,15.1c0,2.1-1,3.6-2.9,4.5c-0.3,0.2-0.7,0.3-1,0.4
		C165.4,256.8,164.9,256.8,164.4,256.8z"/>
	<path class="st0" d="M300,213.3c-0.8,2-2,3.5-4.4,3.7c-1,0.1-1.9-0.3-2.9-0.6c-9-3.2-18.6,1.6-21.1,10.7c-0.4,1.4-0.6,2.9-0.6,4.4
		c0,6.4-0.1,12.8,0,19.3c0.1,3.1-1,5.1-3.9,6.1c-0.6,0-1.2,0-1.8,0c-0.1-0.1-0.2-0.2-0.4-0.2c-2.3-0.9-3.4-2.4-3.4-4.8
		c0-13.6,0-27.3,0-40.9c0-2.6,1.7-4.6,4-4.9c2.6-0.3,4.8,1.1,5.4,3.5c0.1,0.6,0.1,1.2,0.2,1.8c0.5-0.1,0.8-0.5,1.2-0.8
		c5.5-3.9,11.7-5.2,18.4-4.4c1.3,0.2,2.6,0.4,3.9,0.7c2.3,0.7,4.3,1.8,5.4,4.1C300,211.8,300,212.5,300,213.3z"/>
	<path class="st0" d="M174.4,0.2c0.9,0.6,1.2,1.3,1.2,2.4c0,5.6,0,11.2,0,16.8c0,1.7-0.6,2.3-2.3,2.3c-6.4,0-12.8,0-19.2,0
		c-1.7,0-2.2-0.6-2.2-2.3c0-5.6,0-11.2,0-16.8c0-1.1,0.3-1.8,1.2-2.4C160.1,0.2,167.2,0.2,174.4,0.2z"/>
	<path class="st1" d="M22.8,256.8c0-0.1,0-0.1,0-0.2c1.8,0,3.7,0,5.5,0c0,0.1,0,0.1,0,0.2C26.4,256.8,24.6,256.8,22.8,256.8z"/>
	<path class="st1" d="M78.4,256.8c0-0.1,0-0.1,0-0.2c1.8,0,3.7,0,5.5,0c0,0.1,0,0.1,0,0.2C82.1,256.8,80.2,256.8,78.4,256.8z"/>
	<path class="st1" d="M139.5,256.6c0,0.1,0,0.1,0,0.2c-1.8,0-3.6,0-5.5,0c0-0.1,0-0.1,0-0.2C135.9,256.6,137.7,256.6,139.5,256.6z"
		/>
	<path class="st0" d="M222.8,73.9c-9.7-15.6-2.7-33.7,4.3-42.1c10.6,5.7,17.4,14.2,19.6,26.2c1.4-0.2,2.8-0.3,4.2-0.5
		c5.9-0.6,11.7-0.3,17.4,1.4c3,0.9,5.7,2.3,8.1,4.3c0.6,0.5,0.8,0.9,0.5,1.7c-3.4,9.8-10.2,15.9-19.8,19.3c-4.5,1.6-9.2,2.1-14,2
		c-1,0-1.4,0.3-1.7,1.2c-4,10.2-8.8,20.1-15,29.2c-14.4,21.4-34.1,35.3-58.9,42.4c-10.8,3.1-21.8,4.7-33,5.1
		c-12.3,0.5-24.5-0.3-36.5-3.1c-8.2-1.9-16-4.6-22.9-9.5c-8.3-6-14-14-18.2-23.2c-4-8.7-6.3-17.9-7.6-27.4c-0.7-5.1-0.9-10.2-1-15.3
		c-0.1-4.9,3.6-7.9,7.8-7.9c49.7,0.1,99.5,0.1,149.2,0c5.6,0,11-1.1,16.2-3.3C222,74.3,222.3,74.1,222.8,73.9z"/>
	<path class="st0" d="M83.9,256.6c-1.8,0-3.7,0-5.5,0c-7.5-0.7-13.4-4.4-17.8-10.3c-10.8-14.7-3-36.4,16-40
		c13.6-2.5,26.6,6.1,29.4,19.6c3.5,16.7-8.8,29-21.3,30.6C84.5,256.6,84.2,256.6,83.9,256.6z M97.1,231.3c0-8.7-7.2-15.8-15.9-15.9
		c-8.7,0-16,7.3-16,15.9c0.1,8.8,7.2,15.9,16,15.9C90,247.3,97.1,240.1,97.1,231.3z"/>
	<path class="st0" d="M139.5,256.6c-1.8,0-3.7,0-5.5,0c-8-0.8-14.2-4.8-18.5-11.5c-9.9-15.3-1.1-35.6,16.8-38.8
		c7.7-1.4,14.8,0.3,20.8,5.5c2.3,2,2.5,5.1,0.6,7.2c-1.7,1.8-4.5,1.9-6.6,0.3c-2.2-1.7-4.6-3.1-7.4-3.6c-9.1-1.8-18.1,5-18.8,14.2
		c-0.5,6.9,2.3,12.3,8.4,15.5c6.1,3.2,12,2.6,17.5-1.7c2.3-1.8,5.3-1.7,7,0.3c1.8,2.1,1.4,5.1-0.8,7
		C149.1,254.3,144.7,256.2,139.5,256.6z"/>
	<path class="st0" d="M107.6,51.9c3.2,0,6.3,0,9.5,0c1.8,0,2.4,0.6,2.4,2.4c0,5.6,0,11.2,0,16.7c0,1.8-0.6,2.4-2.3,2.4
		c-6.4,0-12.8,0-19.2,0c-1.7,0-2.3-0.6-2.3-2.3c0-5.7,0-11.3,0-17c0-1.7,0.6-2.3,2.3-2.3C101.1,51.9,104.3,51.9,107.6,51.9z"/>
	<path class="st0" d="M107.5,47.6c-3.2,0-6.4,0-9.6,0c-1.7,0-2.3-0.6-2.3-2.3c0-5.6,0-11.2,0-16.9c0-1.7,0.6-2.4,2.3-2.4
		c6.4,0,12.8,0,19.1,0c1.7,0,2.3,0.6,2.3,2.4c0,5.6,0,11.2,0,16.9c0,1.7-0.6,2.3-2.3,2.3C113.9,47.6,110.7,47.6,107.5,47.6z"/>
	<path class="st0" d="M135.9,51.9c3.2,0,6.4,0,9.6,0c1.6,0,2.2,0.6,2.2,2.2c0,5.7,0,11.4,0,17.1c0,1.6-0.6,2.2-2.2,2.2
		c-6.5,0-12.9,0-19.4,0c-1.6,0-2.2-0.7-2.2-2.2c0-5.7,0-11.4,0-17.1c0-1.6,0.7-2.2,2.3-2.2C129.4,51.9,132.6,51.9,135.9,51.9z"/>
	<path class="st0" d="M191.9,51.9c3.2,0,6.4,0,9.6,0c1.6,0,2.2,0.6,2.2,2.2c0,5.7,0,11.4,0,17.1c0,1.6-0.6,2.2-2.2,2.2
		c-6.5,0-12.9,0-19.4,0c-1.6,0-2.2-0.6-2.2-2.2c0-5.7,0-11.4,0-17.1c0-1.6,0.7-2.2,2.3-2.2C185.5,51.9,188.7,51.9,191.9,51.9z"/>
	<path class="st0" d="M135.8,47.6c-3.2,0-6.4,0-9.6,0c-1.7,0-2.3-0.6-2.3-2.3c0-5.6,0-11.2,0-16.9c0-1.7,0.6-2.4,2.3-2.4
		c6.4,0,12.8,0,19.1,0c1.7,0,2.3,0.6,2.3,2.3c0,5.6,0,11.2,0,16.9c0,1.8-0.6,2.4-2.4,2.4C142.1,47.6,138.9,47.6,135.8,47.6z"/>
	<path class="st0" d="M79.7,73.4c-3.2,0-6.4,0-9.6,0c-1.8,0-2.3-0.6-2.3-2.3c0-5.7,0-11.3,0-17c0-1.6,0.6-2.2,2.3-2.2
		c6.4,0,12.8,0,19.1,0c1.7,0,2.3,0.6,2.3,2.3c0,5.6,0,11.2,0,16.8c0,1.8-0.6,2.3-2.4,2.3C86,73.4,82.8,73.4,79.7,73.4z"/>
	<path class="st0" d="M163.6,47.6c-3.1,0-6.3,0-9.4,0c-1.8,0-2.3-0.6-2.3-2.3c0-5.7,0-11.3,0-17c0-1.7,0.6-2.2,2.2-2.3
		c6.4,0,12.8,0,19.2,0c1.7,0,2.2,0.6,2.2,2.3c0,5.7,0,11.3,0,17c0,1.7-0.6,2.3-2.3,2.3C170.1,47.6,166.8,47.6,163.6,47.6z"/>
	<path class="st0" d="M163.7,73.4c-3.2,0-6.4,0-9.6,0c-1.8,0-2.3-0.6-2.3-2.3c0-5.6,0-11.2,0-16.8c0-1.8,0.6-2.3,2.3-2.3
		c6.4,0,12.8,0,19.1,0c1.7,0,2.3,0.6,2.3,2.3c0,5.7,0,11.3,0,17c0,1.6-0.6,2.2-2.2,2.2C170.1,73.4,166.9,73.4,163.7,73.4z"/>
	<path class="st0" d="M285.9,253.2c0,1.8-1.5,3.3-3.3,3.3c-1.9,0-3.4-1.5-3.4-3.4c0-1.8,1.6-3.2,3.4-3.2
		C284.4,249.9,285.9,251.4,285.9,253.2z M284,255c1-0.7,1.2-1.8,0.7-3c-0.5-1.1-1.7-1.7-2.9-1.4c-1,0.3-1.8,1.2-1.9,2.3
		c-0.1,1.1,0.6,2.2,1.6,2.5C282.4,255.9,283.4,256,284,255L284,255z"/>
	<path class="st0" d="M284.1,255c-0.5-0.1-0.9-0.2-1-0.8c-0.1-0.5-0.4-0.7-1-0.5c0,0.3-0.1,0.7-0.1,1.1c-0.8-0.1-0.9-1-0.6-3.1
		c0.6-0.2,1.2-0.1,1.8-0.1c0.5,0.1,0.9,0.5,0.7,0.8C283.2,253.4,284.1,254.2,284.1,255C284,255,284.1,255,284.1,255z M282.1,253
		c0.5,0,0.9,0.1,1-0.4c0-0.4-0.3-0.5-0.6-0.5C281.8,252.1,282,252.5,282.1,253z"/>
</g>
</svg>
