<svg xmlns="http://www.w3.org/2000/svg" viewBox="0 0 198.6 176.24"><defs><style>.cls-1{fill:#4a4a4a;}</style></defs><title>tietoevry-logo</title><g id="Layer_2" data-name="Layer 2"><g id="Layer_1-2" data-name="Layer 1"><path class="cls-1" d="M7.05.31A48.15,48.15,0,0,0,6.74,7.9a74.08,74.08,0,0,1-.27,8c-.22.54-.94.72-3.37.72H0V26.91L3.28,27l3.24.13L6.74,42c.18,12.76.31,15,1,16.18a10.89,10.89,0,0,1,.94,2.07A9.38,9.38,0,0,0,11,62.64C13.8,65,17.75,65.83,25.3,65.78c4.49,0,5.93-.22,6.47-.72s.67-1.89.72-5.57l0-4.9-4-.27c-3.59-.27-4.09-.4-5-1.48s-1-1.35-1-13c0-8.54.13-11.91.54-12.31S25,27,27.46,27s4-.18,4.27-.49c.4-.67.4-7.1,0-8.4-.31-.94-.58-1-4.27-1-2.43,0-4.09-.18-4.45-.54s-.54-2.83-.54-8.27V.53L21.07.26C19.19-.1,7.41-.1,7.05.31Z"/><path class="cls-1" d="M38.78.31c-1,.18-1,.36-1,5.08,0,2.83.18,5,.45,5.17.72.45,14.42.36,14.87-.09.27-.27.36-2.65.31-5.35L53.25.22l-6.74,0A77.08,77.08,0,0,0,38.78.31Z"/><path class="cls-1" d="M119.89.31c-.72.18-.81.94-.81,7.73,0,5.21-.18,7.68-.54,8s-1.89.54-3.82.54c-3.86,0-3.82-.09-3.64,6.07l.13,4L115,27l3.82.22L119.13,40c.36,14.56.72,18.11,2.25,20.31,3,4.36,6.61,5.57,16.54,5.44,4.81,0,6.56-.22,6.83-.67.63-1,.49-10.69-.13-10.74-.31,0-1.71,0-3.06,0-3.77.09-4.9-.36-6.11-2.65-1-1.93-1.08-2.34-1.08-12.13,0-7.23.18-10.43.58-11.23.54-1.08.81-1.12,5.26-1.35l4.72-.22.13-3.37a30.29,30.29,0,0,0-.13-4.85l-.27-1.44h-4.13c-6.38,0-6.25.22-6.11-8.72a53.73,53.73,0,0,0-.22-7.82C134,.17,131.89,0,127.26,0,123.62.08,120.29.17,119.89.31Z"/><path class="cls-1" d="M33.88,78.63a8,8,0,0,1-2.5.68,8.82,8.82,0,0,0-3,1.27c-2.09,1.36-4,4.45-4,6.5a6.84,6.84,0,0,1-.64,2.32,13.88,13.88,0,0,0-1,3.41,19.29,19.29,0,0,1-1.14,4,9.72,9.72,0,0,0-.86,3.09,7.09,7.09,0,0,1-.68,2.59,12.85,12.85,0,0,0-1,3.5,9,9,0,0,1-4.23,6.77,9.25,9.25,0,0,1-2.45,1.09,15,15,0,0,0-2.91,1.27,7,7,0,0,0-4,7.36c.32,3.45,1.23,7.82,1.86,9,1.18,2.32,2.68,7.63,2.45,8.73-.14.59-.59,2.36-1,3.91A18.23,18.23,0,0,0,8,149.39l.14,2.41,4.77,0c3.36,0,5.18-.23,6.14-.73a15.55,15.55,0,0,1,3.59-1,9.75,9.75,0,0,0,3.18-.86,9.38,9.38,0,0,1,3-1,8.69,8.69,0,0,0,2.91-1,4.23,4.23,0,0,1,1.91-.68,6.52,6.52,0,0,0,2.5-.86,13.24,13.24,0,0,1,3-1.14,4.07,4.07,0,0,0,1.77-.77,5.46,5.46,0,0,1,1.73-1c1.91-.82,4.77-3.73,5.09-5.23a18.06,18.06,0,0,1,.68-2.23,4.07,4.07,0,0,0-.64-4.45c-1-1.18-1.09-1.18-3.73-.64a13.27,13.27,0,0,0-3.73,1.18,4.47,4.47,0,0,1-2.09.64,7.64,7.64,0,0,0-2.73.86,15.6,15.6,0,0,1-3.36,1.18,8.14,8.14,0,0,0-2.59,1,6.69,6.69,0,0,1-3.09.64c-3.64,0-4.23-1.82-2.5-8.18a21.42,21.42,0,0,1,1.41-3.86,6.38,6.38,0,0,0,.73-1.86c0-.73,4-4.73,4.73-4.73A1.72,1.72,0,0,0,32,116.4a5.39,5.39,0,0,1,2.36-.91,8.45,8.45,0,0,0,2.82-1,4.38,4.38,0,0,1,2.09-.68A12.21,12.21,0,0,0,43,112.58c2.09-1,2.77-1.59,3.54-3.18a8.61,8.61,0,0,0,1-2.86c0-1.55-1.73-3.59-3-3.59a5.94,5.94,0,0,1-2.36-.64,12.92,12.92,0,0,0-3-1c-2-.41-2.77-1.82-2.36-4.14.55-2.68,4.64-5.18,8.59-5.18a28.69,28.69,0,0,0,4.86-.68c1.64-.41,4.77-.91,7-1.18,4.27-.45,8.27-1.82,9.27-3s2.86-5.36,2.86-6.32c0-1.59-2-1.91-8-1.45a43.75,43.75,0,0,0-7.41,1.09,14.52,14.52,0,0,1-3.59.68,35.86,35.86,0,0,0-4.54.5c-3.14.55-5.09.09-5.09-1.18C40.65,78.27,37.06,77.27,33.88,78.63Z"/><path class="cls-1" d="M127.68,86.91a7.34,7.34,0,0,0-2,1.09,3.78,3.78,0,0,1-1.5.86c-.5,0-2.77,1.64-4.86,3.5-3.32,3-4.73,3-5.68.23a6.38,6.38,0,0,0-1-2c-.68-.68-4.41-.14-5.14.73a1.92,1.92,0,0,1-1.14.68c-1.18,0-3,2-4.32,4.77a17.73,17.73,0,0,0-1.36,3.54,1.72,1.72,0,0,1-.64,1.18,3.94,3.94,0,0,0-1,2c-.64,2.82-2.54,5.86-4,6.5a8.63,8.63,0,0,0-2.5,1.68c-.91,1-1,1.5-.91,5.41.09,3.68,0,4.5-.91,6.09a8.25,8.25,0,0,0-1,2.54A1.82,1.82,0,0,1,89.1,127a4.57,4.57,0,0,0-1,2,6.11,6.11,0,0,1-.73,2c-.68.82-2.27,6.36-2.45,8.73-.27,2.68,1.14,4.32,4.18,5,4.09.91,6.27-.09,8-3.73a27.67,27.67,0,0,1,1.55-2.86,26.49,26.49,0,0,0,1.64-3,16.79,16.79,0,0,1,.91-1.82,11.46,11.46,0,0,0,.86-1.82,11.22,11.22,0,0,1,.91-1.82,23.9,23.9,0,0,0,1.09-2.18c.36-.77,1-1.45,1.32-1.45.68,0,3.27,2,6.14,4.59a32.51,32.51,0,0,0,3.18,2.23A9.28,9.28,0,0,1,117,134.8c0,.18.41.5,1,.64a26.07,26.07,0,0,1,4.82,2.91,4.85,4.85,0,0,0,1.68.77,3.48,3.48,0,0,1,1.64.86,3.42,3.42,0,0,0,1.82.91,3.42,3.42,0,0,1,1.82.91,3.94,3.94,0,0,0,1.91,1,10.47,10.47,0,0,1,2.82,1.14,6.3,6.3,0,0,0,2.09.86c1.68,0,2,.73,1,2.77a10.26,10.26,0,0,1-1.64,2.64,1.74,1.74,0,0,0-.77,1,16.57,16.57,0,0,1-1.73,3,47.56,47.56,0,0,0-4.09,7.18c-3.45,7.09-4.14,9.63-3.27,12.32.45,1.36.77,1.55,3.41,2.14a11.32,11.32,0,0,0,5.91.09c4.14-.77,5-1.64,5-5.32,0-2.91.59-4.5,3.64-9.68.59-1,1.36-2.45,1.73-3.18a7.27,7.27,0,0,1,1.36-2,1.83,1.83,0,0,0,.77-1,49.91,49.91,0,0,1,4.45-6.82,3.48,3.48,0,0,0,.77-1.18c.68-1.36,15.22-20.18,17.31-22.31.5-.45,2-2.18,3.36-3.77,2.36-2.73,6.5-7.32,8.09-9,.45-.45,2.64-2.82,4.86-5.27s5-5.54,6.23-6.77c3.45-3.68,3.54-3.82,3.54-5.41,0-1-.5-2-1.86-3.64-1.73-2-2-2.14-4-2.14h-2.18L183,94.18c-8.13,8.68-9.68,10.36-13.13,14.54-1.32,1.59-2.73,3.23-3.14,3.68s-2.18,2.54-3.91,4.73c-3,3.86-4,4.45-4.64,2.77-.45-1.09.59-14.59,1.32-17.41,1.68-6.73,1.45-9.13-1.23-11.82-1.68-1.64-2-1.82-4.18-1.82-1.91,0-2.59.23-3.36,1a3.73,3.73,0,0,0-1,2,9.87,9.87,0,0,1-.68,2.73,25.48,25.48,0,0,0-1.14,5.77,34.07,34.07,0,0,1-1,5.68c-.68,1.82-.86,21.54-.27,26,.27,2.27.18,2.77-.55,3.5s-1,.82-3,.27c-3.82-1-8.45-3.36-14.09-7.18-6.73-4.54-6.73-4.54-6.36-5.91.23-.91.73-1.32,2.23-1.73a8.43,8.43,0,0,0,2.59-1.09,5.67,5.67,0,0,1,1.82-.91c1.77-.55,3.59-2,7.27-5.68,4-4,5-6.36,5.32-12.27.18-3.41,0-4.14-1-6.36s-4.18-5.91-5.18-5.91a4.59,4.59,0,0,1-1.59-.91A9.68,9.68,0,0,0,127.68,86.91Zm2.41,12.5c1.32,1.32.14,5.09-2.59,8a30.84,30.84,0,0,1-10.63,7.13c-3.64,1.45-5,1.36-5.18-.23-.23-2.36,11.13-14.5,14.18-15.13C127.72,98.77,129.54,98.86,130.09,99.4Z"/><path class="cls-1" d="M88.23,89.86c-1.14,1-3.5,4.23-3.5,4.77a94.73,94.73,0,0,1-5,8.77,3.67,3.67,0,0,0-.64,1.45,4.32,4.32,0,0,1-1,1.82,5.65,5.65,0,0,0-1.14,1.5c-.23.5-.91,1.73-1.5,2.73a34.72,34.72,0,0,0-1.77,3.23,8.42,8.42,0,0,1-1.36,2,1.83,1.83,0,0,0-.73,1c0,1.09-5.82,8.18-6.54,8-.36-.09-.59-3.59-.73-11.27-.23-10-.32-11.22-1.14-12.45-1.32-2-1.59-2.09-4.18-1.82-3.23.32-5.32,1.64-6,3.73-1,3-1.09,8.73-.32,17.86.41,4.91.73,10.63.73,12.72,0,4.91.59,6.91,2.54,8.86,1.73,1.73,3.41,2,4.91.91a3.51,3.51,0,0,1,1.64-.68c1.27,0,6-4.86,11.45-11.82,1.68-2.14,3.32-4.18,3.68-4.54a32.92,32.92,0,0,0,1.91-2.73,18,18,0,0,1,1.82-2.5,73.82,73.82,0,0,0,4.54-6.54c.27-.41,1.41-2.18,2.54-3.91s2.45-3.82,2.86-4.54,1.36-2.27,2.09-3.41c4.77-7.41,4.64-9.32-.77-13.09C90.73,88.59,89.73,88.59,88.23,89.86Z"/><path class="cls-1" d="M78.73,16.22a11.35,11.35,0,0,0-3.82,1,9.12,9.12,0,0,1-2.25.94c-2.56.63-8.27,5.3-10.43,8.58-3.1,4.72-4.85,11.46-4.22,16.18,1,7.55,1.71,9.75,4.13,13.3,1.3,1.89,5.84,6.25,6.79,6.52a5.52,5.52,0,0,1,1.62.85c.76.63,4.22,1.84,7.14,2.56a66,66,0,0,0,8.76.31c5.57-.13,7-.31,7.91-1a4.28,4.28,0,0,1,1.89-.76c.76,0,1.84-.4,4.31-1.75,1.57-.81,6.83-5.75,6.83-6.43a4.65,4.65,0,0,1,.94-1.66,2.48,2.48,0,0,0,.63-2.25c-.27-.9-.58-.94-6.79-.94H95.67l-2.25,1.89c-3.33,2.88-8,4.22-10.83,3.1A17.18,17.18,0,0,0,80.44,56c-1.71-.36-5.21-3.82-5.84-5.75a4.64,4.64,0,0,0-.94-1.93c-.63-.4-.49-2.29.18-2.88.45-.31,6.29-.54,18.78-.58l18.15-.13-.18-3.1a19.32,19.32,0,0,0-.76-4.9,10.66,10.66,0,0,1-.63-3,10.21,10.21,0,0,0-1.12-3.42,22.89,22.89,0,0,1-1.12-2.56c0-.63-2.07-3.33-4-5.3-2.47-2.47-4.58-4-6.2-4.31a6.43,6.43,0,0,1-1.93-.9C93.33,16,84.75,15.41,78.73,16.22Zm9.75,10c2.2,1,5,3.82,5,5a1.89,1.89,0,0,0,.67,1.12,2.85,2.85,0,0,1,.67,1.84c0,2.07-1.26,2.29-11.59,2.11-7.14-.09-9.21-.27-9.48-.76-.54-.81,1.3-4.81,3.1-6.65,1.89-2,5.26-3.68,7.5-3.73A11.3,11.3,0,0,1,88.48,26.24Z"/><path class="cls-1" d="M166.4,16.13a12.18,12.18,0,0,0-3.82,1,10,10,0,0,1-2.25,1c-2.47.58-8.45,5.57-10,8.4-2,3.42-3.37,6.83-3.37,8.13a30,30,0,0,1-.45,3.51C146,40.8,147,49.51,148,51a4.07,4.07,0,0,1,.72,1.66c0,1.66,7.28,9.8,8.76,9.8a3.81,3.81,0,0,1,1.66.9,10,10,0,0,0,2.88,1.3c1,.27,2.88.76,4.22,1.17,3.46,1,10.43.67,14.38-.63,5.17-1.8,7.77-3.28,10.47-6.11,3.51-3.64,3.77-4,4.13-5.26a6.14,6.14,0,0,1,.9-1.71,10,10,0,0,0,1.08-3.28,16.08,16.08,0,0,1,.94-3.42c.67-1.3.54-6.83-.22-9a12.29,12.29,0,0,1-.67-2.83c0-2.43-4.63-9.62-7.68-12a28.31,28.31,0,0,0-4.45-2.92c-.36-.18-1.71-.76-3-1.35-1.89-.85-3.28-1.08-7.64-1.26A64.12,64.12,0,0,0,166.4,16.13Zm10,12c4,2,6.07,6,6.34,12.67.18,3.59,0,4.58-.81,6.74-1.39,3.42-3.64,6.25-5.35,6.61a3.4,3.4,0,0,0-1.57.72c-.45.72-4.58.45-6.65-.45-2.74-1.17-4.94-4-5.84-7.68C161.1,41,161.1,41,162.71,35A11.05,11.05,0,0,1,168.29,28,8.45,8.45,0,0,1,176.42,28.12Z"/><path class="cls-1" d="M38.06,16.89c-.49.49-.36,47,.13,47.81.31.54,1.8.72,7.37.81,6.61.13,7,.09,7.41-.76.36-.63.45-8.22.4-24.4l-.13-23.5-7.46-.13A63.13,63.13,0,0,0,38.06,16.89Z"/></g></g></svg>