<?xml version="1.0" encoding="utf-8"?>
<!-- Generator: Adobe Illustrator 22.0.1, SVG Export Plug-In . SVG Version: 6.00 Build 0)  -->
<svg version="1.1" id="design" xmlns="http://www.w3.org/2000/svg" xmlns:xlink="http://www.w3.org/1999/xlink" x="0px" y="0px"
	 viewBox="0 0 213.6 51.5" style="enable-background:new 0 0 213.6 51.5;" xml:space="preserve">
<style type="text/css">
	.st0{fill:#E44D26;}
	.st1{fill:#F16529;}
	.st2{fill:#EBEBEB;}
	.st3{fill:#FFFFFF;}
	.st4{fill:#264DE4;}
	.st5{fill:#2965F1;}
	.st6{fill:#DAB92D;}
	.st7{fill:#FFD839;}
	.st8{fill:#53C1DE;}
	.st9{fill:#002A41;}
	.st10{fill:#0071B5;}
	.st11{fill:#DF4F4F;}
	.st12{fill:#26262C;}
	.st13{fill:#CCCCCC;}
	.st14{fill:#A6120D;}
	.st15{fill:#B3B3B3;}
	.st16{fill:#DD1B16;}
	.st17{fill:#F2F2F2;}
</style>
<g>
	<g>
		<g transform="translate(303.542858, 0.000000)">
			<path class="st11" d="M-176.7,0l44.7,47.4c0,0,1.5,1.1,2.7-0.2s0.3-2.5,0.3-2.5L-176.7,0L-176.7,0z"/>
			<path class="st11" d="M-162.5,4.5l34,36.7c0,0,1.5,1.1,2.7-0.2s0.3-2.5,0.3-2.5L-162.5,4.5L-162.5,4.5z"/>
			<path class="st11" d="M-172.5,14.1l34.1,36.7c0,0,1.5,1.1,2.7-0.2s0.3-2.5,0.3-2.5L-172.5,14.1L-172.5,14.1z"/>
			<path class="st11" d="M-150.5,8.3l23.8,25.6c0,0,1.1,0.7,1.9-0.1s0.2-1.8,0.2-1.8L-150.5,8.3L-150.5,8.3z"/>
			<path class="st11" d="M-169.2,25.2l23.8,25.6c0,0,1.1,0.7,1.9-0.1s0.2-1.8,0.2-1.8L-169.2,25.2L-169.2,25.2z"/>
			<path class="st11" d="M-138.3,13.9l10.8,11.7c0,0,0.5,0.3,0.9-0.1s0.1-0.8,0.1-0.8L-138.3,13.9L-138.3,13.9z"/>
			<path class="st11" d="M-163.2,37l10.8,11.7c0,0,0.5,0.3,0.9-0.1c0.4-0.4,0.1-0.8,0.1-0.8L-163.2,37L-163.2,37z"/>
		</g>
		<g transform="translate(0.000000, 44.184078)">
			<path class="st12" d="M186.3-25V6.5h7.1V-3.7h5.4l6.9,10.2h8.1l-7.6-10.9c0,0,6.7-2.6,6.7-9.9c0-10.2-9.3-10.6-9.3-10.6h-17.3
				V-25z M193.4-18.9v9.1h9.1c0,0,3.5,0,3.5-4.6c0-4.8-4.2-4.6-4.2-4.6L193.4-18.9L193.4-18.9z M193.4-18.9v9.1h9.1
				c0,0,3.5,0,3.5-4.6c0-4.8-4.2-4.6-4.2-4.6L193.4-18.9L193.4-18.9z"/>
			<path class="st12" d="M107.4-25V6.5h23.9V0.4h-16.8v-6.6H129v-6.1h-14.5v-6.6h16.8V-25H107.4L107.4-25z"/>
			<path class="st12" d="M72.9-25v6.1h9.4V6.5h7.1v-25.4h9.4V-25H72.9L72.9-25z"/>
			<path class="st12" d="M40.4-25V6.5h23.9V0.4H47.5v-6.6H62v-6.1H47.5v-6.6h16.8V-25H40.4L40.4-25z"/>
			<path class="st12" d="M0.2-25V6.5h7.1v-19.8L16-0.6l8.7-12.7V6.4h7.1v-31.5h-7.1l-8.7,13l-8.7-13L0.2-25L0.2-25z"/>
		</g>
	</g>
	<path class="st3" d="M202,34.4h-8.5v-9.1h8.5c2.2,0,4.1,1.9,4.1,4.1v0.9C206.1,32.6,204.2,34.4,202,34.4z"/>
</g>
</svg>
